<svg width="213" height="213" viewBox="0 0 213 213" fill="none" xmlns="http://www.w3.org/2000/svg">
<path d="M106.5 203.079C159.061 203.079 201.67 179.908 201.67 151.326C201.67 122.743 159.061 99.5723 106.5 99.5723C53.939 99.5723 11.3299 122.743 11.3299 151.326C11.3299 179.908 53.939 203.079 106.5 203.079Z" fill="#F5F5F5"/>
<path d="M106.5 148.617C114.42 148.617 120.841 144.91 120.841 140.337C120.841 135.765 114.42 132.058 106.5 132.058C98.5798 132.058 92.1591 135.765 92.1591 140.337C92.1591 144.91 98.5798 148.617 106.5 148.617Z" fill="#E0E0E0"/>
<path d="M159.974 170.749C172.493 170.749 182.642 164.889 182.642 157.661C182.642 150.433 172.493 144.574 159.974 144.574C147.455 144.574 137.306 150.433 137.306 157.661C137.306 164.889 147.455 170.749 159.974 170.749Z" fill="#E0E0E0"/>
<path d="M48.7429 172.166C61.2623 172.166 71.4112 166.307 71.4112 159.079C71.4112 151.851 61.2623 145.991 48.7429 145.991C36.2236 145.991 26.0746 151.851 26.0746 159.079C26.0746 166.307 36.2236 172.166 48.7429 172.166Z" fill="#E0E0E0"/>
<path d="M193.816 148.363L189.535 146.611C189.535 146.611 188.611 140.421 188.609 135.443C188.606 128.448 192.963 119.895 198.494 121.326C204.025 122.756 196.937 130.581 195.784 136.628C194.631 142.675 193.816 148.363 193.816 148.363Z" fill="#1CDEEC"/>
<path opacity="0.3" d="M193.816 148.363L189.535 146.611C189.535 146.611 188.611 140.421 188.609 135.443C188.606 128.448 192.963 119.895 198.494 121.326C204.025 122.756 196.937 130.581 195.784 136.628C194.631 142.675 193.816 148.363 193.816 148.363Z" fill="black"/>
<path d="M191.756 147.837C191.758 147.837 191.76 147.836 191.762 147.836C191.861 147.823 191.93 147.732 191.917 147.633C189.875 132.291 196.774 123.791 196.844 123.707C196.907 123.63 196.897 123.516 196.821 123.453C196.743 123.389 196.629 123.399 196.566 123.476C196.495 123.561 189.496 132.183 191.559 147.681C191.572 147.778 191.659 147.846 191.756 147.837Z" fill="white"/>
<path d="M196.026 149.385L193.79 148.372C193.79 148.372 192.641 143.538 194.089 137.973C195.525 132.46 200.303 129.059 202.713 129.622C205.654 130.308 205.941 133.031 205.082 134.925C204.069 137.157 196.972 143.252 196.026 149.385Z" fill="#1CDEEC"/>
<path opacity="0.1" d="M196.026 149.385L193.79 148.372C193.79 148.372 192.641 143.538 194.089 137.973C195.525 132.46 200.303 129.059 202.713 129.622C205.654 130.308 205.941 133.031 205.082 134.925C204.069 137.157 196.972 143.252 196.026 149.385Z" fill="black"/>
<path d="M194.864 149.031H194.865C194.964 149.021 195.037 148.932 195.027 148.833C194.024 139.104 202.513 131.624 202.599 131.549C202.675 131.483 202.683 131.369 202.617 131.293C202.552 131.218 202.439 131.209 202.362 131.276C202.275 131.351 193.645 138.956 194.667 148.87C194.677 148.969 194.765 149.041 194.864 149.031Z" fill="white"/>
<path d="M23.8581 144.444L26.7941 142.767C26.7941 142.767 28.2021 135.007 27.149 128.336C25.6682 118.958 19.2829 115.723 16.9637 116.655C14.6446 117.587 14.0993 120.365 18.2878 125.784C20.759 128.982 23.9374 135.74 23.8581 144.444Z" fill="#1CDEEC"/>
<g opacity="0.15">
<path d="M23.8581 144.444L26.7941 142.767C26.7941 142.767 28.2021 135.007 27.149 128.336C25.6682 118.958 19.2829 115.723 16.9637 116.655C14.6446 117.587 14.0993 120.365 18.2878 125.784C20.759 128.982 23.9374 135.74 23.8581 144.444Z" fill="black"/>
</g>
<path d="M24.9223 140.719C24.9125 140.719 24.9031 140.719 24.8933 140.717C24.7787 140.701 24.6986 140.596 24.7148 140.481C25.9281 131.701 22.3974 122.081 18.43 118.205C18.3474 118.124 18.3457 117.991 18.4266 117.908C18.5076 117.827 18.6401 117.824 18.7227 117.905C22.7625 121.853 26.3609 131.629 25.1293 140.538C25.1148 140.644 25.0249 140.719 24.9223 140.719Z" fill="white"/>
<path d="M15.7122 149.15C15.2482 149.416 14.2923 148.834 13.9259 148.588C13.2989 148.167 12.7911 147.571 12.4537 146.898C12.0609 146.114 11.9621 145.274 12.0852 144.406C12.1491 143.956 12.2748 143.518 12.4004 143.081C12.5235 142.653 12.6467 142.224 12.7702 141.795C12.892 141.372 13.0147 140.935 12.9589 140.498C12.8465 139.619 12.0656 139.002 11.3559 138.471C10.5712 137.883 9.7537 137.107 9.75796 136.048C9.76136 135.231 10.1844 134.472 10.6909 133.831C11.1974 133.19 11.7981 132.623 12.2556 131.947C12.5849 131.459 12.8422 130.887 12.7885 130.301C12.7553 129.938 12.6045 129.595 12.4303 129.273C12.0562 128.584 11.5629 127.952 11.3052 127.212C11.0475 126.471 11.0841 125.55 11.6622 125.019C12.1367 124.584 12.8418 124.524 13.4842 124.566C14.0784 124.605 14.6591 124.874 15.1788 125.163C16.8598 126.098 17.8192 128.088 19.6032 128.808C20.2912 129.085 21.0453 129.146 21.7622 129.336C22.4796 129.525 23.2106 129.892 23.5429 130.555C24.1977 131.863 22.9823 133.475 23.4428 134.863C23.85 136.092 25.0441 136.562 25.7146 137.669C26.0077 138.153 26.0755 138.713 26.0282 139.278C25.9481 140.233 25.8084 140.933 25.35 141.995C24.9713 142.873 23.8581 144.444 23.8581 144.444C23.83 144.472 15.7833 149.109 15.7122 149.15Z" fill="#1CDEEC"/>
<path d="M20.4782 146.61C20.4753 146.61 20.4723 146.61 20.4723 146.61C20.3539 146.605 20.2644 146.508 20.2687 146.392C20.6146 138.082 16.6988 128.906 13.8514 126.241C13.767 126.162 13.7628 126.03 13.8416 125.945C13.9208 125.861 14.0529 125.857 14.1377 125.935C17.0426 128.654 21.0376 137.982 20.6874 146.409C20.6827 146.522 20.5899 146.61 20.4782 146.61Z" fill="white"/>
<path d="M19.233 136.792C19.2126 136.792 19.1917 136.789 19.1713 136.783C16.5015 135.957 13.1736 135.812 13.1404 135.811C13.0245 135.806 12.9351 135.708 12.9397 135.593C12.9449 135.477 13.0322 135.386 13.1579 135.392C13.1919 135.394 16.5723 135.541 19.2952 136.383C19.4056 136.417 19.4678 136.534 19.4333 136.644C19.4052 136.734 19.3225 136.792 19.233 136.792Z" fill="white"/>
<path d="M171.178 154.963L167.209 154.507L166.181 146.506L171.034 147.945L171.178 154.963Z" fill="#B16668"/>
<path d="M162.481 161.489C162.359 161.604 162.39 162.266 162.549 162.459C162.959 162.954 164.076 163.533 165.575 163.641C167.008 163.743 168.287 163.55 169.128 163.016C169.969 162.482 170.376 161.893 170.455 161.077C170.535 160.261 170.444 159.474 170.833 158.846C171.192 158.265 171.764 157.612 171.889 157.298C172.16 156.613 171.899 155.636 171.899 155.636L162.481 161.489Z" fill="#263238"/>
<path d="M166.402 154.364C166.392 154.681 166.336 154.971 166.237 155.273C166.03 155.906 165.714 156.502 165.36 157.068C165.177 157.36 164.985 157.647 164.762 157.911C164.329 158.426 163.791 158.85 163.332 159.344C162.873 159.839 162.484 160.439 162.448 161.103C162.387 162.226 164.178 162.608 165.117 162.775C166.12 162.954 167.19 162.9 168.168 162.622C169.257 162.313 170.043 161.469 170.223 160.383C170.275 160.071 170.256 159.752 170.293 159.438C170.377 158.722 170.748 158.068 171.167 157.472C171.41 157.127 171.674 156.79 171.837 156.403C172.13 155.707 171.895 154.925 171.708 154.232C171.546 153.634 171.35 152.946 171.139 153.003C171.136 153.313 171.154 153.355 170.931 153.566C170.65 153.831 170.638 154.231 170.34 154.467C170.479 154.102 170.488 153.947 170.549 153.667C170.567 153.583 170.544 153.414 170.485 153.35C170.406 153.264 170.272 153.21 170.14 153.165C169.698 153.016 169.24 152.912 168.776 152.855C168.352 152.802 167.293 152.751 166.872 152.845C166.743 152.874 166.617 152.936 166.537 153.039C166.454 153.147 166.438 153.243 166.418 153.422C166.398 153.602 166.412 154.066 166.402 154.364Z" fill="#455A64"/>
<path d="M165.208 157.304C165.627 156.99 167.136 156.986 167.648 157.041C168.29 157.11 168.81 157.335 169.105 157.552C169.236 157.648 169.419 157.632 169.534 157.518C169.673 157.381 169.66 157.156 169.503 157.04C169.19 156.81 168.624 156.487 167.863 156.433C166.602 156.344 165.66 156.56 165.66 156.56C165.66 156.56 165.084 156.931 165.208 157.304Z" fill="#F5F5F5"/>
<path d="M164.246 158.455C164.772 158.144 166.375 158.189 166.888 158.244C167.53 158.312 168.009 158.565 168.305 158.782C168.435 158.879 168.618 158.862 168.733 158.748C168.872 158.612 168.859 158.387 168.702 158.271C168.389 158.041 167.216 157.668 166.455 157.615C165.194 157.527 164.865 157.784 164.865 157.784C164.865 157.784 164.333 157.99 164.246 158.455Z" fill="#F5F5F5"/>
<path d="M168.365 155.226C167.494 155.136 166.552 155.234 166.208 155.359C165.985 155.484 165.839 155.835 165.982 155.924C166.263 155.768 167.34 155.703 167.959 155.731C168.375 155.749 168.899 155.918 169.323 156.106C169.431 156.154 169.559 156.221 169.671 156.283C169.821 156.366 170.014 156.307 170.086 156.154C170.147 156.024 170.101 155.869 169.977 155.793C169.672 155.609 169.07 155.299 168.365 155.226Z" fill="#F5F5F5"/>
<path d="M156.375 151.324L152.6 150.27V142.642L157.283 142.845L156.375 151.324Z" fill="#B16668"/>
<path d="M144.628 155.409C144.511 155.655 144.545 156.116 144.685 156.409C144.824 156.702 146.353 157.563 148.414 157.424C150.476 157.286 151.892 156.455 152.678 155.934C153.464 155.414 154.282 155.317 155.303 155.258C156.324 155.2 157.664 154.691 157.888 154.213C158.112 153.736 157.855 152.914 157.855 152.914L144.628 155.409Z" fill="#263238"/>
<path d="M152.948 148.974C152.894 148.963 152.84 148.952 152.785 148.941C152.695 148.923 152.602 148.905 152.513 148.926C152.412 148.95 152.329 149.022 152.258 149.098C152.037 149.339 151.903 149.645 151.732 149.925C151.3 150.63 150.392 151.213 149.402 151.746C148.728 152.108 148.068 152.389 147.373 152.701C146.664 153.02 145.722 153.215 145.167 153.59C144.358 154.135 144.254 155.505 145.175 156.046C145.97 156.513 148.063 157.018 150.257 156.397C151.452 156.058 152.779 154.781 154.347 154.658C155.345 154.58 157.232 154.3 157.874 153.542C158.112 153.206 157.795 152.141 157.534 151.221C157.25 150.218 156.98 148.651 156.647 148.74C156.634 148.937 156.603 148.981 156.474 149.115C156.351 149.242 156.185 149.323 156.051 149.438C155.804 149.648 155.653 149.946 155.499 150.232C155.433 150.355 155.354 150.487 155.216 150.539C155.048 150.602 154.922 150.496 154.775 150.428C154.59 150.343 154.374 150.328 154.179 150.386C154.198 150.187 154.233 149.99 154.284 149.796C154.3 149.734 154.319 149.668 154.298 149.606C154.278 149.544 154.224 149.5 154.171 149.463C153.786 149.193 153.389 149.07 152.948 148.974Z" fill="#455A64"/>
<path d="M150.334 151.203C150.334 151.203 150.477 150.82 151.07 150.71C151.524 150.626 152.326 150.96 152.825 151.371C153.029 151.538 153.002 151.858 152.771 151.986C152.633 152.062 152.465 152.042 152.346 151.938C152.019 151.654 151.286 151.138 150.334 151.203Z" fill="#F5F5F5"/>
<path d="M148.927 151.991C148.927 151.991 149.22 151.533 149.799 151.541C149.799 151.541 150.985 151.575 151.719 152.259C151.906 152.434 151.893 152.731 151.669 152.854C151.535 152.927 151.373 152.908 151.259 152.806C150.929 152.511 150.266 151.891 148.927 151.991Z" fill="#F5F5F5"/>
<path d="M147.373 152.701C147.373 152.701 147.7 152.287 148.28 152.295C148.28 152.295 149.384 152.336 150.118 153.02C150.305 153.195 150.292 153.492 150.068 153.615C149.935 153.688 149.772 153.668 149.659 153.567C149.328 153.272 148.713 152.601 147.373 152.701Z" fill="#F5F5F5"/>
<path d="M170.309 101.546C170.569 109.415 170.587 126.454 170.587 126.454C170.67 127.433 170.754 129.174 170.828 132.7C170.934 137.814 171.178 150.433 171.178 150.433C171.178 150.433 168.738 151.578 166.501 150.646C166.501 150.646 163.383 132.9 162.744 127.838C162.187 123.421 161.117 113.06 161.117 113.06L159.641 126.213C159.641 126.213 159.658 129.6 159.442 132.627C159.276 134.969 157.004 147.038 157.004 147.038C157.004 147.038 154.929 147.712 152.492 146.889C152.492 146.889 152.285 128.361 152.243 126.213C152.197 123.764 152.827 97.3286 152.827 97.3286L170.309 101.546Z" fill="#455A64"/>
<path d="M161.117 113.059L160.557 108.6C160.557 108.6 158.213 108.125 155.485 106.275C155.485 106.275 156.566 107.724 159.736 109.256L160.452 113.302L159.642 126.213L161.117 113.059Z" fill="#37474F"/>
<path d="M152.621 79.4651C151.47 80.9744 145.55 89.0939 145.55 89.0939L140.085 84.8591C138.792 83.8567 138.427 82.5442 137.626 81.6402C136.824 80.7363 135.949 80.5143 135.051 79.7552C134.153 78.9965 133.805 78.4218 133.499 79.068C133.193 79.7143 134.184 80.8453 134.357 81.1209C134.529 81.3961 135.55 82.0432 134.193 81.9883C132.836 81.9333 130.234 80.3673 129.602 80.0823C128.971 79.7969 128.957 80.5769 129.251 81.0881C129.545 81.5998 129.403 83.0239 129.749 83.9406C130.095 84.8569 130.715 85.4163 131.962 86.0365C133.124 86.6146 135.954 86.9776 136.874 87.5582C138.891 89.6247 142.701 93.4907 143.663 94.2047C144.989 95.1883 146.271 96.0957 148.298 94.1467C150.325 92.1978 156.201 84.5379 156.201 84.5379L157.417 77.2605C155.418 77.1698 154.008 77.6465 152.621 79.4651Z" fill="#B16668"/>
<path d="M145.55 89.0942C146.3 89.6472 147.08 90.8915 147.154 91.4487C147.154 91.4487 147.244 89.9624 145.871 88.6533L145.55 89.0942Z" fill="#9A4A4D"/>
<path d="M157.879 77.0652C157.879 77.0652 155.069 77.0277 153.832 77.8942C152.594 78.7607 151.681 80.0122 149.673 82.9444C147.914 85.5145 147.064 86.7264 147.064 86.7264C147.064 86.7264 148.535 89.2181 151.841 90.3738L157.089 83.8722L157.879 77.0652Z" fill="#37474F"/>
<path d="M163.32 76.9265C164.915 77.0812 167.147 77.0995 168.73 77.2601C169.827 77.7112 171.937 79.5507 171.78 80.8641C171.193 85.7669 170.003 93.8051 170.003 93.8051L170.395 102.318C168.202 104.506 157.934 105.361 152.645 101.859C152.645 101.859 152.816 86.5571 153.179 83.9768C153.832 79.3386 154.403 77.6171 156.797 77.2064C159.19 76.7958 163.32 76.9265 163.32 76.9265Z" fill="#1CDEEC"/>
<path d="M172.344 79.5871C173.494 81.0965 179.415 89.216 179.415 89.216L184.879 84.9812C186.173 83.9788 186.537 82.6663 187.339 81.7623C188.141 80.8583 189.016 80.6364 189.914 79.8772C190.812 79.1185 191.159 78.5439 191.466 79.1901C191.772 79.8364 190.781 80.9674 190.608 81.243C190.436 81.5182 189.415 82.1653 190.772 82.1103C192.129 82.0554 194.731 80.4894 195.362 80.2044C195.994 79.919 196.008 80.699 195.714 81.2102C195.42 81.7214 195.562 83.1459 195.215 84.0627C194.869 84.9794 194.25 85.5384 193.003 86.1586C191.841 86.7367 189.01 87.0996 188.091 87.6803C186.073 89.7468 182.264 93.6128 181.301 94.3267C179.975 95.3104 178.693 96.2178 176.666 94.2688C174.64 92.3199 170.003 86.26 170.003 86.26L167.548 77.3826C169.547 77.2918 170.957 77.7685 172.344 79.5871Z" fill="#B16668"/>
<path d="M179.415 89.2163C178.665 89.7692 177.885 91.0136 177.811 91.5708C177.811 91.5708 177.721 90.0845 179.093 88.7754L179.415 89.2163Z" fill="#9A4A4D"/>
<path d="M167.277 77.1522C167.277 77.1522 169.803 76.9958 171.132 78.0161C172.331 78.9358 173.283 80.1342 175.291 83.0663C177.051 85.6364 177.9 86.8483 177.9 86.8483C177.9 86.8483 176.429 89.34 173.123 90.4958L169.558 86.079C167.686 83.7189 165.841 80.1269 167.277 77.1522Z" fill="#37474F"/>
<path d="M163.716 65.3924C163.74 68.1217 161.547 70.354 158.817 70.3778C156.088 70.4017 153.856 68.2082 153.832 65.4788C153.808 62.7494 156.002 60.5172 158.731 60.4934C161.46 60.4695 163.693 62.663 163.716 65.3924Z" fill="#263238"/>
<path d="M167.348 68.8745C167.348 68.8745 166.58 72.6442 166.264 73.2653C165.949 73.8864 165.287 74.0679 165.287 74.0679L165.32 71.4203L167.348 68.8745Z" fill="#263238"/>
<path d="M166.296 63.4933C166.296 63.4933 167.157 63.3378 167.835 64.0194C168.5 64.6878 168.151 66.8008 167.348 68.8745L165.841 69.0611L166.296 63.4933Z" fill="#263238"/>
<path d="M165.389 69.0662C165.693 69.2443 166.119 68.6594 166.488 68.2658C166.858 67.8721 168.071 67.3281 168.69 68.6027C169.321 69.9016 168.18 71.6354 167.224 71.9447C165.576 72.4776 165.319 71.4203 165.319 71.4203L165.251 77.5636C163.22 80.2155 157.517 80.043 159.868 77.271L159.857 75.4571C159.857 75.4571 158.363 75.6973 157.631 75.5908C156.414 75.4136 155.642 74.4615 155.261 73.1499C154.651 71.0424 154.411 69.3389 154.877 65.1794C155.388 60.6208 160.684 60.5271 163.56 62.3022C166.436 64.0773 165.389 69.0662 165.389 69.0662Z" fill="#B16668"/>
<path d="M165.393 69.5751C165.545 69.5768 166.115 68.6115 166.489 68.2656C167.006 67.7863 166.296 63.4931 166.296 63.4931C166.296 63.4931 166.931 62.2722 165.916 61.1752C165.195 60.3948 164.189 59.4431 160.949 59.8546C158.64 60.1481 156.129 60.8915 154.088 59.9104C153.795 61.1782 154.053 62.587 155.326 63.5757C155.326 63.5757 156.066 64.0439 158.003 64.2625C159.941 64.481 162.953 64.1738 163.365 64.1138C163.925 64.032 164.05 64.5751 164.365 66.0585C164.642 67.3608 164.882 69.5696 165.393 69.5751Z" fill="#263238"/>
<path d="M166.296 63.8277L168.116 62.83C167.852 62.3081 167.231 62.1087 166.728 62.3839C166.225 62.6596 166.032 63.3058 166.296 63.8277Z" fill="#263238"/>
<path d="M159.857 75.4571C159.857 75.4571 162.565 74.8871 163.509 74.3747C164.14 74.0317 164.658 73.4426 164.808 73.0664C164.808 73.0664 164.638 73.8728 164.076 74.6026C163.391 75.495 159.863 76.1788 159.863 76.1788L159.857 75.4571Z" fill="#9A4A4D"/>
<path d="M159.638 68.6324C159.641 68.9442 159.886 69.1943 160.186 69.1909C160.487 69.1875 160.728 68.9319 160.725 68.62C160.722 68.3082 160.476 68.0581 160.176 68.0616C159.876 68.065 159.635 68.3206 159.638 68.6324Z" fill="#263238"/>
<path d="M161.253 66.7625L160.044 66.2134C159.899 66.5597 160.052 66.9636 160.386 67.1152C160.72 67.2669 161.109 67.1088 161.253 66.7625Z" fill="#263238"/>
<path d="M156.076 66.0928L155.024 66.9201C155.243 67.2217 155.657 67.2809 155.947 67.0526C156.238 66.8238 156.296 66.3944 156.076 66.0928Z" fill="#263238"/>
<path d="M155.442 68.502C155.445 68.8011 155.68 69.0405 155.968 69.0375C156.256 69.0341 156.487 68.7891 156.484 68.4901C156.482 68.191 156.246 67.9516 155.959 67.9546C155.671 67.958 155.44 68.2034 155.442 68.502Z" fill="#263238"/>
<path d="M158.262 68.061L157.957 71.3208L156.274 70.6737L158.262 68.061Z" fill="#9A4A4D"/>
<path d="M159.19 72.5444C159.19 72.8324 159.423 73.0654 159.711 73.0654C159.998 73.0654 160.232 72.832 160.232 72.5444C160.232 72.2565 159.998 72.0234 159.711 72.0234C159.423 72.0234 159.19 72.2569 159.19 72.5444Z" fill="#9A4A4D"/>
<path d="M172.489 37.8389C173.311 38.0208 174.087 38.3122 174.815 38.7122C175.543 39.1122 176.16 39.6021 176.664 40.1819C177.17 40.7613 177.533 41.4199 177.755 42.1581C177.977 42.8951 177.993 43.693 177.803 44.5501C177.648 45.25 177.404 45.8341 177.072 46.3014C176.738 46.7692 176.355 47.1709 175.924 47.5061C175.492 47.8418 175.036 48.1358 174.558 48.3875C174.08 48.6397 173.627 48.8791 173.201 49.1053C172.775 49.3324 172.389 49.5825 172.044 49.8543C171.699 50.1269 171.459 50.4498 171.321 50.823C171.243 51.0079 171.127 51.1561 170.974 51.269C170.82 51.3823 170.648 51.4168 170.455 51.3746L168.46 50.9325C168.268 50.8903 168.112 50.7825 167.995 50.6095C167.878 50.4366 167.849 50.2564 167.909 50.0677C168.095 49.3929 168.371 48.8255 168.74 48.3654C169.108 47.9057 169.516 47.5095 169.966 47.1777C170.416 46.8458 170.884 46.5596 171.368 46.3184C171.853 46.0769 172.304 45.8418 172.722 45.613C173.139 45.3847 173.496 45.1418 173.791 44.8862C174.087 44.6306 174.275 44.3188 174.356 43.9512C174.503 43.2866 174.345 42.6779 173.88 42.1249C173.414 41.5724 172.718 41.1932 171.791 40.9879C170.304 40.6582 169.045 41.1604 168.017 42.4925C167.887 42.6659 167.763 42.7895 167.646 42.8644C167.528 42.9398 167.355 42.9518 167.127 42.9011L165.002 42.4303C164.845 42.3954 164.72 42.3128 164.63 42.1828C164.539 42.0529 164.514 41.9004 164.552 41.7249C164.705 41.1166 165.032 40.5329 165.532 39.9736C166.032 39.4143 166.641 38.944 167.359 38.561C168.077 38.1793 168.88 37.9113 169.767 37.7593C170.654 37.6072 171.561 37.6336 172.489 37.8389ZM170.238 52.979C170.43 53.0211 170.581 53.1285 170.689 53.2993C170.798 53.4701 170.831 53.6516 170.789 53.8442L170.277 56.1535C170.234 56.3465 170.127 56.4973 169.957 56.6055C169.786 56.715 169.604 56.7482 169.412 56.7052L167.155 56.2055C166.962 56.162 166.811 56.056 166.702 55.8847C166.593 55.7139 166.56 55.5328 166.603 55.3399L167.114 53.0301C167.157 52.838 167.264 52.6872 167.435 52.5777C167.606 52.469 167.787 52.4358 167.98 52.4784L170.238 52.979Z" fill="#1CDEEC"/>
<path d="M179.185 59.5597C179.759 59.466 180.33 59.4536 180.9 59.5239C181.469 59.5938 181.99 59.7497 182.462 59.9917C182.934 60.2349 183.336 60.5638 183.667 60.98C183.999 61.3962 184.213 61.9036 184.311 62.5013C184.39 62.9899 184.383 63.4274 184.289 63.8121C184.196 64.1972 184.053 64.5529 183.862 64.8788C183.671 65.2042 183.454 65.5092 183.212 65.7934C182.97 66.0775 182.742 66.3463 182.527 66.6011C182.311 66.8558 182.128 67.1148 181.977 67.3777C181.825 67.6401 181.753 67.9089 181.761 68.1832C181.758 68.3221 181.721 68.4465 181.652 68.5581C181.582 68.6697 181.481 68.7366 181.347 68.7583L179.955 68.9858C179.82 69.008 179.693 68.9786 179.573 68.8976C179.454 68.8171 179.389 68.7089 179.38 68.5722C179.326 68.0921 179.358 67.6576 179.477 67.2682C179.595 66.8793 179.756 66.5206 179.959 66.193C180.163 65.8654 180.389 65.5621 180.638 65.283C180.887 65.0044 181.116 64.7382 181.326 64.4839C181.535 64.2312 181.701 63.9842 181.825 63.7447C181.949 63.5049 181.99 63.257 181.948 63.0001C181.873 62.537 181.615 62.1873 181.175 61.9513C180.735 61.7161 180.192 61.6514 179.545 61.757C178.507 61.9266 177.829 62.5707 177.51 63.6881C177.47 63.8321 177.423 63.9433 177.366 64.0212C177.31 64.0996 177.203 64.1516 177.044 64.1776L175.561 64.4204C175.451 64.4383 175.351 64.4174 175.259 64.3569C175.167 64.2964 175.112 64.2053 175.092 64.083C175.034 63.654 175.094 63.1961 175.272 62.7091C175.449 62.2222 175.719 61.7647 176.082 61.3361C176.444 60.9067 176.891 60.5306 177.42 60.2055C177.95 59.8805 178.538 59.6654 179.185 59.5597ZM181.617 69.8417C181.752 69.8199 181.876 69.8498 181.99 69.9311C182.103 70.0133 182.171 70.1215 182.193 70.2549L182.456 71.8673C182.478 72.0015 182.449 72.1254 182.367 72.2392C182.285 72.3534 182.177 72.4202 182.043 72.4424L180.468 72.6997C180.333 72.7218 180.21 72.6925 180.096 72.6107C179.982 72.5289 179.914 72.4211 179.892 72.2865L179.629 70.6745C179.607 70.5407 179.637 70.4168 179.718 70.3026C179.8 70.1893 179.908 70.1211 180.042 70.099L181.617 69.8417Z" fill="#1CDEEC"/>
<g opacity="0.2">
<path d="M179.185 59.5597C179.759 59.466 180.33 59.4536 180.9 59.5239C181.469 59.5938 181.99 59.7497 182.462 59.9917C182.934 60.2349 183.336 60.5638 183.667 60.98C183.999 61.3962 184.213 61.9036 184.311 62.5013C184.39 62.9899 184.383 63.4274 184.289 63.8121C184.196 64.1972 184.053 64.5529 183.862 64.8788C183.671 65.2042 183.454 65.5092 183.212 65.7934C182.97 66.0775 182.742 66.3463 182.527 66.6011C182.311 66.8558 182.128 67.1148 181.977 67.3777C181.825 67.6401 181.753 67.9089 181.761 68.1832C181.758 68.3221 181.721 68.4465 181.652 68.5581C181.582 68.6697 181.481 68.7366 181.347 68.7583L179.955 68.9858C179.82 69.008 179.693 68.9786 179.573 68.8976C179.454 68.8171 179.389 68.7089 179.38 68.5722C179.326 68.0921 179.358 67.6576 179.477 67.2682C179.595 66.8793 179.756 66.5206 179.959 66.193C180.163 65.8654 180.389 65.5621 180.638 65.283C180.887 65.0044 181.116 64.7382 181.326 64.4839C181.535 64.2312 181.701 63.9842 181.825 63.7447C181.949 63.5049 181.99 63.257 181.948 63.0001C181.873 62.537 181.615 62.1873 181.175 61.9513C180.735 61.7161 180.192 61.6514 179.545 61.757C178.507 61.9266 177.829 62.5707 177.51 63.6881C177.47 63.8321 177.423 63.9433 177.366 64.0212C177.31 64.0996 177.203 64.1516 177.044 64.1776L175.561 64.4204C175.451 64.4383 175.351 64.4174 175.259 64.3569C175.167 64.2964 175.112 64.2053 175.092 64.083C175.034 63.654 175.094 63.1961 175.272 62.7091C175.449 62.2222 175.719 61.7647 176.082 61.3361C176.444 60.9067 176.891 60.5306 177.42 60.2055C177.95 59.8805 178.538 59.6654 179.185 59.5597ZM181.617 69.8417C181.752 69.8199 181.876 69.8498 181.99 69.9311C182.103 70.0133 182.171 70.1215 182.193 70.2549L182.456 71.8673C182.478 72.0015 182.449 72.1254 182.367 72.2392C182.285 72.3534 182.177 72.4202 182.043 72.4424L180.468 72.6997C180.333 72.7218 180.21 72.6925 180.096 72.6107C179.982 72.5289 179.914 72.4211 179.892 72.2865L179.629 70.6745C179.607 70.5407 179.637 70.4168 179.718 70.3026C179.8 70.1893 179.908 70.1211 180.042 70.099L181.617 69.8417Z" fill="black"/>
</g>
<path d="M193.709 64.1286C193.841 64.2223 193.92 64.3505 193.948 64.5141C193.975 64.6777 193.942 64.8251 193.849 64.9567L192.728 66.5334C192.635 66.6654 192.506 66.7447 192.343 66.7719C192.179 66.8 192.032 66.7668 191.9 66.6735L190.359 65.5778C190.227 65.4841 190.149 65.3563 190.121 65.1927C190.093 65.0287 190.126 64.8818 190.22 64.7501L191.34 63.1731C191.434 63.0414 191.562 62.9622 191.726 62.9345C191.889 62.9068 192.036 62.9396 192.168 63.0333L193.709 64.1286ZM200.229 53.4407C200.79 53.839 201.281 54.3054 201.702 54.8388C202.123 55.3726 202.433 55.9375 202.628 56.5351C202.824 57.1332 202.887 57.7446 202.82 58.3712C202.752 58.9978 202.511 59.6036 202.094 60.1894C201.755 60.6673 201.385 61.0294 200.986 61.2752C200.586 61.5219 200.169 61.7025 199.737 61.8175C199.304 61.933 198.867 62.0092 198.428 62.0471C197.986 62.0842 197.57 62.1208 197.176 62.1558C196.783 62.1907 196.412 62.2559 196.067 62.3517C195.72 62.4467 195.435 62.6137 195.213 62.851C195.095 62.9656 194.961 63.0406 194.809 63.0768C194.658 63.113 194.517 63.084 194.385 62.9907L193.023 62.0224C192.892 61.9291 192.809 61.7988 192.775 61.6309C192.742 61.4631 192.777 61.3178 192.883 61.1947C193.238 60.7457 193.627 60.4066 194.051 60.177C194.475 59.9482 194.909 59.78 195.353 59.6731C195.797 59.5666 196.241 59.4992 196.683 59.4724C197.125 59.4447 197.54 59.4115 197.928 59.3723C198.315 59.3331 198.66 59.2641 198.965 59.1657C199.268 59.0669 199.51 58.8922 199.688 58.6413C200.011 58.1872 200.085 57.6785 199.911 57.1136C199.736 56.5492 199.333 56.0418 198.7 55.592C197.684 54.8699 196.576 54.8469 195.376 55.5225C195.223 55.6116 195.09 55.6661 194.979 55.6848C194.866 55.7036 194.732 55.658 194.577 55.5477L193.125 54.5155C193.018 54.4392 192.95 54.3374 192.923 54.2109C192.897 54.0835 192.926 53.9608 193.011 53.8415C193.32 53.4317 193.752 53.0956 194.307 52.8336C194.862 52.5716 195.471 52.4106 196.133 52.3514C196.796 52.2922 197.486 52.3459 198.202 52.5141C198.92 52.6807 199.595 52.99 200.229 53.4407Z" fill="#1CDEEC"/>
<g opacity="0.6">
<path d="M193.709 64.1286C193.841 64.2223 193.92 64.3505 193.948 64.5141C193.975 64.6777 193.942 64.8251 193.849 64.9567L192.728 66.5334C192.635 66.6654 192.506 66.7447 192.343 66.7719C192.179 66.8 192.032 66.7668 191.9 66.6735L190.359 65.5778C190.227 65.4841 190.149 65.3563 190.121 65.1927C190.093 65.0287 190.126 64.8818 190.22 64.7501L191.34 63.1731C191.434 63.0414 191.562 62.9622 191.726 62.9345C191.889 62.9068 192.036 62.9396 192.168 63.0333L193.709 64.1286ZM200.229 53.4407C200.79 53.839 201.281 54.3054 201.702 54.8388C202.123 55.3726 202.433 55.9375 202.628 56.5351C202.824 57.1332 202.887 57.7446 202.82 58.3712C202.752 58.9978 202.511 59.6036 202.094 60.1894C201.755 60.6673 201.385 61.0294 200.986 61.2752C200.586 61.5219 200.169 61.7025 199.737 61.8175C199.304 61.933 198.867 62.0092 198.428 62.0471C197.986 62.0842 197.57 62.1208 197.176 62.1558C196.783 62.1907 196.412 62.2559 196.067 62.3517C195.72 62.4467 195.435 62.6137 195.213 62.851C195.095 62.9656 194.961 63.0406 194.809 63.0768C194.658 63.113 194.517 63.084 194.385 62.9907L193.023 62.0224C192.892 61.9291 192.809 61.7988 192.775 61.6309C192.742 61.4631 192.777 61.3178 192.883 61.1947C193.238 60.7457 193.627 60.4066 194.051 60.177C194.475 59.9482 194.909 59.78 195.353 59.6731C195.797 59.5666 196.241 59.4992 196.683 59.4724C197.125 59.4447 197.54 59.4115 197.928 59.3723C198.315 59.3331 198.66 59.2641 198.965 59.1657C199.268 59.0669 199.51 58.8922 199.688 58.6413C200.011 58.1872 200.085 57.6785 199.911 57.1136C199.736 56.5492 199.333 56.0418 198.7 55.592C197.684 54.8699 196.576 54.8469 195.376 55.5225C195.223 55.6116 195.09 55.6661 194.979 55.6848C194.866 55.7036 194.732 55.658 194.577 55.5477L193.125 54.5155C193.018 54.4392 192.95 54.3374 192.923 54.2109C192.897 54.0835 192.926 53.9608 193.011 53.8415C193.32 53.4317 193.752 53.0956 194.307 52.8336C194.862 52.5716 195.471 52.4106 196.133 52.3514C196.796 52.2922 197.486 52.3459 198.202 52.5141C198.92 52.6807 199.595 52.99 200.229 53.4407Z" fill="white"/>
</g>
<path d="M56.4373 148.471C56.3917 147.203 57.3149 134.702 57.3149 134.702L51.2325 139.113C52.4806 146.562 52.7469 148.319 52.7686 149.538C52.7592 149.566 52.7341 149.67 52.7358 149.85C52.7409 151.298 54.3746 152.078 55.6488 153.043C56.1523 153.424 57.6161 154.549 59.0947 155.293C60.0204 155.758 61.9004 155.8 62.1334 155.205C60.5827 154.021 58.3279 152.249 57.0946 150.897C56.5059 150.251 56.4829 149.74 56.4373 148.471Z" fill="#FFA8A7"/>
<path d="M64.7767 156.762C64.8564 156.762 64.9497 157.554 64.5177 157.927C64.0193 158.357 62.5824 159.096 60.6492 158.846C58.716 158.596 57.6693 158.048 56.8957 157.401C56.1221 156.753 55.0379 155.84 54.1633 155.647C53.351 155.467 52.4687 155.099 52.2089 154.848C51.949 154.597 51.9852 153.481 51.9852 153.481L64.7767 156.762Z" fill="#263238"/>
<path d="M52.7563 149.184C52.7563 149.184 52.5139 149.187 52.4636 149.445C52.404 149.753 52.3396 150.647 52.2118 151.153C52.0342 151.854 51.9153 153.293 52.0218 153.865C52.1283 154.437 53.4523 154.835 54.2988 155.157C55.1632 155.486 56.163 156.165 57.0405 156.889C57.9488 157.638 59.8598 158.417 61.1199 158.408C62.6109 158.398 64.2894 157.915 64.674 157.224C65.1499 156.368 64.7771 155.873 62.5666 154.848C62.1483 154.654 60.6782 153.784 60.1776 153.469C58.8221 152.616 57.4797 151.428 56.8561 149.918C56.7832 149.742 56.707 149.546 56.5383 149.456C56.4092 149.387 56.2533 149.397 56.1085 149.418C55.74 149.469 55.38 149.578 55.0447 149.738C54.7482 149.88 54.3274 150.044 54.3333 150.424C54.3354 150.556 54.3738 150.685 54.4168 150.811C54.4432 150.888 54.4641 150.991 54.3964 151.037C54.3325 151.081 54.2473 151.031 54.1898 150.98C53.9584 150.772 53.7889 150.506 53.5938 150.264C53.4894 150.135 53.3757 150.011 53.244 149.908C53.1243 149.815 52.9718 149.769 52.8653 149.662C52.7303 149.528 52.7627 149.363 52.7563 149.184Z" fill="#455A64"/>
<path d="M57.0401 156.889C56.6546 156.57 56.2452 156.263 55.8341 155.988V155.986C55.8341 155.986 58.4336 157.567 59.4841 156.849C60.161 156.387 59.8389 155.826 59.8228 155.646C59.8066 155.467 61.4756 154.699 62.133 154.621C62.3161 154.722 62.4695 154.803 62.5658 154.848C64.7763 155.873 65.1495 156.368 64.6732 157.223C64.2885 157.915 63.0727 158.454 61.1455 158.454C59.8862 158.454 57.9484 157.638 57.0401 156.889Z" fill="#37474F"/>
<path d="M59.6413 155.123C61.016 155.673 60.4294 155.93 60.0447 155.985C59.6596 156.04 57.346 154.688 55.9351 153.572C54.4632 152.407 53.5354 151.134 52.9884 150.707C52.7848 150.547 52.5654 150.351 52.3699 150.168C52.4061 149.866 52.4355 149.59 52.4632 149.445C52.513 149.187 52.7558 149.184 52.7558 149.184C52.7622 149.362 52.7299 149.528 52.8645 149.662C52.9705 149.768 53.1235 149.814 53.2432 149.907C53.3748 150.01 53.4886 150.134 53.5929 150.264C53.7876 150.506 53.9572 150.772 54.1889 150.979C55.3894 152.503 58.267 154.574 59.6413 155.123Z" fill="#263238"/>
<path d="M59.9467 155.783C59.9165 155.783 59.8858 155.773 59.8607 155.752C59.8023 155.705 59.7938 155.619 59.8415 155.561C60.2296 155.086 61.3483 154.456 62.3596 154.568C62.4346 154.576 62.4887 154.643 62.4801 154.718C62.4721 154.792 62.4128 154.844 62.3302 154.838C61.3857 154.737 60.3591 155.357 60.0515 155.733C60.0255 155.766 59.9863 155.783 59.9467 155.783Z" fill="#F5F5F5"/>
<path d="M58.748 155.045C58.7177 155.045 58.687 155.035 58.6619 155.014C58.6035 154.967 58.5954 154.881 58.6427 154.823C59.0304 154.349 60.1486 153.72 61.1608 153.831C61.2358 153.839 61.2899 153.906 61.2814 153.981C61.2733 154.055 61.2081 154.109 61.1314 154.101C60.1866 154.001 59.1603 154.619 58.8527 154.996C58.8263 155.028 58.7876 155.045 58.748 155.045Z" fill="#F5F5F5"/>
<path d="M57.5483 154.346C57.5181 154.346 57.4874 154.336 57.4623 154.315C57.4039 154.268 57.3958 154.182 57.4431 154.124C57.8312 153.649 58.9499 153.019 59.9612 153.131C60.0362 153.139 60.0903 153.207 60.0818 153.281C60.0737 153.356 60.0098 153.41 59.9318 153.402C58.9869 153.3 57.9607 153.92 57.6531 154.296C57.6271 154.329 57.588 154.346 57.5483 154.346Z" fill="#F5F5F5"/>
<path d="M56.4373 153.548C56.4071 153.548 56.3764 153.538 56.3513 153.517C56.2929 153.47 56.2848 153.384 56.3321 153.326C56.7198 152.851 57.8427 152.222 58.8502 152.333C58.9252 152.341 58.9793 152.409 58.9708 152.483C58.9627 152.558 58.8983 152.611 58.8208 152.604C57.8772 152.503 56.8497 153.122 56.5421 153.498C56.5161 153.531 56.4769 153.548 56.4373 153.548Z" fill="#F5F5F5"/>
<path d="M55.3485 152.749C55.3191 152.749 55.2888 152.74 55.2641 152.72C55.2049 152.673 55.1955 152.587 55.242 152.529C55.7753 151.856 56.9809 151.412 57.9918 151.523C58.0668 151.53 58.1209 151.598 58.1124 151.673C58.1043 151.747 58.0395 151.799 57.9624 151.793C57.052 151.694 55.9283 152.101 55.4545 152.698C55.4286 152.732 55.3885 152.749 55.3485 152.749Z" fill="#F5F5F5"/>
<path d="M44.9762 140.388L38.8388 140.277C38.93 144.374 39.5809 148.922 39.6874 152.765C39.7075 153.489 39.6691 158.388 39.9422 159.877C40.3524 162.114 43.0073 161.812 43.1483 160.473C43.2893 159.135 42.9774 153.415 42.986 152.825C42.9625 150.36 44.1178 146.198 44.724 141.773C44.7534 141.556 44.9481 140.6 44.9762 140.388Z" fill="#FFA8A7"/>
<path d="M44.1485 161.405C44.2039 162.72 44.088 163.607 43.7012 164.42C43.3144 165.233 42.4641 165.562 41.5554 165.426C40.6468 165.291 39.4519 164.805 39.0846 163.703C38.7174 162.601 38.691 161.824 38.7703 160.591L44.1485 161.405Z" fill="#263238"/>
<path d="M39.6717 152.296C39.3096 152.361 39.3782 154.127 39.3445 155.905C39.3083 157.811 38.8244 158.646 38.7779 160.21C38.7251 161.998 38.8968 162.777 39.6223 163.781C40.3477 164.786 42.6409 165.612 43.5657 163.976C44.3198 162.642 44.2171 161.257 43.9598 159.504C43.694 157.691 43.4925 156.417 43.4277 155.028C43.3659 153.7 43.3285 152.41 42.9966 152.295C42.9919 152.492 42.9928 152.74 42.986 152.934C42.9808 153.082 43.0162 153.8 42.8126 153.828C42.7768 153.661 42.7644 153.504 42.7585 153.331C42.7534 153.181 42.7244 153.019 42.6158 152.915C42.5063 152.81 42.3435 152.789 42.1923 152.775C41.826 152.74 41.4579 152.712 41.0898 152.716C40.9067 152.718 40.723 152.728 40.5407 152.748C40.3929 152.765 40.2199 152.795 40.0849 152.861C40.0023 152.901 39.9286 152.971 39.9051 153.06C39.8881 153.126 39.8996 153.195 39.9064 153.263C39.9188 153.385 39.9153 153.508 39.897 153.63C39.8889 153.683 39.8595 153.75 39.8059 153.743C39.7624 153.737 39.7403 153.686 39.7356 153.642C39.7126 153.43 39.7241 153.272 39.7092 153.023C39.7023 152.908 39.7053 152.751 39.6951 152.635C39.6857 152.523 39.6755 152.41 39.6717 152.296Z" fill="#455A64"/>
<path d="M38.8103 159.701C38.8005 159.959 38.7545 161.665 39.244 161.923C39.7735 162.202 39.9132 160.85 39.9132 160.85C39.9132 160.85 41.0421 160.376 42.8122 160.947C42.7525 161.229 43.1048 162.105 43.5508 161.868C43.9939 161.632 43.9819 159.681 43.9819 159.656C44.2222 161.338 44.2985 162.682 43.5662 163.977C42.6413 165.613 40.3477 164.786 39.6227 163.782C38.8972 162.777 38.7255 161.999 38.7784 160.211C38.7835 160.032 38.795 159.863 38.8103 159.701Z" fill="#37474F"/>
<path d="M40.0572 160.95C40.1139 161.588 39.4625 161.436 39.3445 160.539C39.2265 159.641 39.5047 157.454 39.3441 155.905C39.3777 154.127 39.3092 152.362 39.6713 152.296C39.6721 152.318 39.6747 152.34 39.6759 152.362L39.7177 153.259C39.7202 153.389 39.7207 153.505 39.7356 153.643C39.8574 154.945 39.9268 157.477 39.9341 158.677C39.9422 159.877 40.0005 160.311 40.0572 160.95Z" fill="#263238"/>
<path d="M42.6136 160.949C42.6703 160.311 42.7291 159.878 42.7363 158.677C42.744 157.486 42.8121 154.983 42.9323 153.673C42.9996 153.447 42.9825 153.042 42.9864 152.934C42.9928 152.754 42.9923 152.527 42.9962 152.337C42.9975 152.324 42.9983 152.311 42.9992 152.297C43.239 152.385 43.3242 153.089 43.3766 153.976C43.3821 154.491 43.3647 155.13 43.3263 155.906C43.1657 157.455 43.4473 159.653 43.3293 160.551C43.2117 161.448 42.557 161.588 42.6136 160.949Z" fill="#263238"/>
<path d="M42.853 160.995C42.836 160.995 42.819 160.992 42.8023 160.986C42.7887 160.98 41.3953 160.436 39.9609 160.977C39.8902 161.003 39.8118 160.968 39.7858 160.898C39.759 160.828 39.7948 160.749 39.8655 160.723C41.4004 160.144 42.8428 160.709 42.9042 160.733C42.9736 160.761 43.0077 160.84 42.9796 160.91C42.9578 160.963 42.9067 160.995 42.853 160.995Z" fill="#F5F5F5"/>
<path d="M43.0188 159.581C43.0034 159.581 42.9881 159.578 42.9727 159.573C42.9574 159.567 41.3974 159.019 39.7914 159.564C39.7202 159.587 39.6431 159.55 39.6188 159.479C39.5946 159.408 39.6329 159.33 39.7041 159.307C41.4025 158.731 42.9975 159.293 43.0652 159.316C43.1359 159.342 43.1725 159.42 43.147 159.491C43.127 159.546 43.0746 159.581 43.0188 159.581Z" fill="#F5F5F5"/>
<path d="M39.7475 158.241C39.696 158.241 39.6465 158.212 39.6235 158.162C39.5929 158.093 39.6227 158.012 39.6908 157.981C41.2717 157.262 42.9723 157.932 43.0443 157.961C43.1142 157.988 43.1478 158.068 43.1197 158.137C43.0916 158.207 43.0111 158.239 42.9429 158.213C42.9267 158.206 41.2747 157.558 39.8042 158.229C39.7858 158.237 39.7667 158.241 39.7475 158.241Z" fill="#F5F5F5"/>
<path d="M39.7168 156.991C39.6661 156.991 39.6176 156.963 39.5941 156.914C39.5618 156.846 39.5903 156.765 39.658 156.732C41.3931 155.907 43.0094 156.662 43.0771 156.695C43.1449 156.727 43.1738 156.808 43.141 156.876C43.1086 156.944 43.0256 156.973 42.9595 156.94C42.9446 156.932 41.3897 156.209 39.7748 156.978C39.7564 156.987 39.7364 156.991 39.7168 156.991Z" fill="#F5F5F5"/>
<path d="M39.6879 155.587C39.638 155.587 39.5899 155.559 39.566 155.511C39.5328 155.444 39.5601 155.362 39.6278 155.329C41.2513 154.528 43.0013 155.293 43.075 155.327C43.1436 155.357 43.1738 155.438 43.1431 155.507C43.1129 155.575 43.0324 155.607 42.9634 155.575C42.9463 155.567 41.2555 154.829 39.7484 155.573C39.7283 155.583 39.7083 155.587 39.6879 155.587Z" fill="#F5F5F5"/>
<path d="M40.856 100.516C38.6919 106.511 39.0744 110.272 39.4446 116.552C39.7846 122.313 40.3264 127.385 40.3264 127.385C40.2395 128.407 38.8188 130.402 38.6348 134.919C38.4631 139.143 39.0706 144.439 39.0706 144.439C39.0706 144.439 41.9073 145.474 44.2976 144.442C44.2976 144.442 46.7492 133.629 47.4164 128.342C47.9983 123.728 49.0096 117.833 49.0096 117.833L51.1519 128.317C51.1519 128.317 50.5181 130.255 50.5181 132.66C50.5181 135.124 51.6661 141.985 51.6661 141.985C51.6661 141.985 54.8381 143.013 56.851 141.229C56.851 141.229 57.6455 131.357 57.9262 127.611C58.3024 122.595 57.7554 108.839 56.5528 101.797L40.856 100.516Z" fill="#455A64"/>
<path d="M49.0096 117.834L49.8952 109.942C49.8952 109.942 53.8622 109.412 55.6595 107.723C55.6595 107.723 54.309 110.197 50.985 110.677L49.7048 118.02L51.1524 128.318L49.0096 117.834Z" fill="#37474F"/>
<path d="M58.8161 94.6864C56.8902 92.7034 53.4055 88.2138 53.4055 88.2138L51.4352 81.3888C51.3871 81.408 52.4402 81.4114 52.7571 81.3922C54.8858 81.5345 55.5138 81.7156 56.8382 83.1657C57.8896 84.3167 61.9025 89.7976 63.2972 91.6405L66.9991 86.9251C67.8861 85.5828 67.7421 84.082 68.2026 82.9868C68.6631 81.8915 69.4073 81.408 70.0029 80.4176C70.5984 79.4271 70.7407 78.7821 71.2302 79.287C71.7197 79.7913 71.1552 81.1584 71.0815 81.4689C71.0082 81.7799 70.2627 82.7052 71.5084 82.2246C72.754 81.7441 74.6808 79.4633 75.1784 78.9977C75.6759 78.5325 75.9362 79.2537 75.8242 79.8229C75.7121 80.392 76.2476 81.6802 76.0534 82.6238C75.8476 83.6249 75.6998 84.082 74.7345 85.0546C73.8356 85.9602 71.6349 87.0704 70.7744 88.2581C69.9138 89.4453 68.0774 93.14 66.9548 95.3659C65.5282 98.1954 64.3128 99.1279 62.7085 98.1749C61.1042 97.2216 59.5301 95.4217 58.8161 94.6864Z" fill="#FFA8A7"/>
<path d="M52.0627 81.3243C53.4051 81.2446 54.5327 81.4261 55.2726 81.7605C56.4288 82.2832 57.2135 83.3985 58.3411 84.9125C59.4692 86.4265 61.4841 89.0664 61.4841 89.0664C61.4841 89.0664 60.9393 91.3626 57.3439 93.424L51.4732 87.3807L52.0627 81.3243Z" fill="#37474F"/>
<path d="M63.2968 91.64C62.3966 92.5031 62.0162 93.5757 61.9528 94.1244C61.9528 94.1244 61.537 92.7591 62.9777 91.2183L63.2968 91.64Z" fill="#F28F8F"/>
<path d="M56.3134 93.424C58.9311 91.271 58.0698 88.4637 57.1134 86.5735C55.2011 82.7932 53.2121 81.3069 52.3827 81.3214L47.1727 81.3704C44.6831 81.7099 42.7568 81.5399 42.1548 81.6826C40.6238 82.0456 40.5906 83.3061 40.5301 84.9373C40.464 86.7248 39.5486 86.4215 40.0159 89.3779C40.0159 89.3779 41.1738 91.7435 41.4541 92.765C41.7344 93.787 42.5259 95.4173 42.1058 97.0702C41.9435 97.7092 41.5099 98.332 40.8551 100.096C40.2425 101.746 39.7428 103.342 39.2188 106.172C39.2188 106.172 40.7388 105.818 42.4692 103.979C42.4692 103.979 44.8327 107.145 50.5193 106.823C56.4186 106.49 56.9366 103.419 56.9366 103.419L56.0369 97.8723C56.1724 95.641 56.2094 94.8328 56.3134 93.424Z" fill="#1CDEEC"/>
<path opacity="0.1" d="M52.9105 92.8601C52.9105 92.8601 50.7703 94.582 48.2786 93.7475C45.7869 92.9125 45.3877 90.7544 45.3877 90.7544C45.3877 90.7544 45.1747 93.5899 48.3148 94.5002C51.3454 95.3786 52.9105 92.8601 52.9105 92.8601Z" fill="black"/>
<path d="M37.9966 78.886C37.2239 78.3233 33.0712 83.886 35.0304 85.2978C36.9896 86.7091 39.0438 82.7328 38.6246 80.8763C38.2054 79.0198 37.9966 78.886 37.9966 78.886Z" fill="#37474F"/>
<path d="M34.2253 76.1245C35.2639 74.6847 35.9706 73.5984 36.9197 72.3634C37.459 71.6622 37.8024 71.1625 38.3204 70.4434C38.677 69.9484 38.8836 69.5326 39.2857 69.3742C39.7381 69.1957 40.1709 68.851 40.4585 68.5383C40.6638 68.3147 40.8308 68.0591 41.0072 67.8124C41.6006 66.9826 42.3137 66.2388 43.1176 65.6104C43.9623 64.9501 44.9051 64.4419 45.7728 63.8119C46.2904 63.4361 46.8417 62.8172 46.1942 62.2595C46.0008 62.093 45.7571 61.9963 45.507 61.946C43.953 61.635 42.6115 62.1922 41.1039 62.6059C40.4487 62.7856 39.805 63.0076 39.1873 63.2909C38.8874 63.4285 38.5888 63.5771 38.3421 63.7957C37.9579 64.1365 37.7325 64.6162 37.4867 65.0673C36.8268 66.2788 35.4351 67.3622 34.4587 68.313C33.3132 69.4287 32.29 70.4515 30.983 71.6831C29.8064 72.792 28.6545 73.8152 27.5784 75.0225C26.6885 76.021 27.0323 76.784 27.166 77.0477C27.932 78.5553 28.7691 79.0857 29.7744 80.0105C30.1071 80.3164 30.442 80.6197 30.7772 80.9222C32.0816 82.0983 33.3878 83.1978 34.7416 84.3165C36.1883 85.5115 36.7851 86.0917 38.0767 87.247C38.8406 87.9299 39.4553 88.7414 40.0828 89.8601C42.3205 90.2315 44.5179 86.8086 42.5996 82.8085C42.2886 82.1597 41.8034 81.611 41.2146 81.1974C38.8563 79.5402 34.2253 76.1245 34.2253 76.1245Z" fill="#FFA8A7"/>
<path d="M34.2253 76.1245C34.2253 76.1245 33.2404 77.4907 31.5317 78.0488C31.5317 78.0488 32.9609 78.387 34.8779 76.6046L34.2253 76.1245Z" fill="#F28F8F"/>
<path d="M42.3363 81.6483C41.811 81.2836 40.5377 80.5139 37.9962 78.8853C37.9962 78.8853 38.3886 79.7091 37.7683 81.7727C37.1485 83.8362 35.8483 85.147 35.0296 85.297C35.0296 85.297 36.4524 86.4208 37.7645 87.6902C39.0766 88.9597 40.1556 89.8616 40.9143 91.3338C40.9143 91.3338 42.7891 90.8516 43.213 87.6766C43.5108 85.4452 43.3327 82.8304 42.3363 81.6483Z" fill="#455A64"/>
<path d="M56.5656 71.4126C57.3217 69.9059 57.1948 67.8108 56.2205 66.4259C54.6055 64.131 51.8817 62.9991 48.8758 63.0515L47.942 63.0682C43.884 63.1393 40.194 66.6219 40.1203 70.5449L40.1173 70.544C40.1173 73.3062 40.1283 75.8584 41.636 77.7387C43.0396 79.4896 45.2229 80.0668 47.07 80.3471C50.5969 80.8826 54.5574 80.4737 56.1579 78.0744C56.1579 78.0744 54.0522 78.4868 54.298 76.2912C54.3367 75.9427 54.0044 75.5598 53.4204 75.1627C53.8579 74.4649 54.298 73.7561 54.8569 73.1831C55.4626 72.5628 56.1566 72.2272 56.5656 71.4126Z" fill="#263238"/>
<path d="M55.5125 73.4292C55.4912 77.5388 54.1757 78.5774 53.5128 78.8807C52.85 79.184 51.5571 79.029 50.3021 78.8436L50.3451 81.3089C50.3451 81.3089 51.8157 82.7978 51.7275 83.9288C51.6363 85.0628 49.4799 85.226 47.8381 84.1486C46.6402 83.3631 45.7784 82.4561 45.4018 82.025C45.2646 81.8682 45.1888 81.6697 45.185 81.4614L45.0832 75.6606C45.0832 75.6606 44.4105 76.3988 43.1819 75.5886C41.9567 74.7813 41.8243 73.2366 42.5502 72.3484C43.0673 71.7179 44.4088 71.6506 45.0704 72.6049C45.4444 73.3074 45.4125 73.7994 45.907 73.7167C46.3837 73.6371 46.4395 73.082 46.4736 72.6884C46.5077 72.2939 46.4928 72.1635 46.5218 71.6464C47.7371 71.3848 48.9943 69.6944 49.1357 68.4595C50.0022 68.8373 50.9134 69.1164 51.779 69.0563C53.1392 68.9622 53.8413 68.6899 54.5097 67.708C54.6601 67.898 54.8147 68.2201 54.888 68.4373C55.1082 69.09 55.2224 69.5019 55.3093 70.0502C55.4869 71.1654 55.5193 72.3024 55.5125 73.4292Z" fill="#FFA8A7"/>
<path d="M50.3004 78.8428C48.9764 78.6929 46.2449 77.9597 45.8027 76.8926C45.8027 76.8926 45.9556 77.5652 46.7795 78.2468C47.6034 78.9284 50.3149 79.665 50.3149 79.665L50.3004 78.8428Z" fill="#F28F8F"/>
<path d="M51.6338 76.6296C51.6389 76.9274 51.402 77.1732 51.1038 77.1783C50.806 77.1834 50.5602 76.9466 50.5551 76.6484C50.55 76.3506 50.7873 76.1048 51.0851 76.0997C51.3828 76.0946 51.6282 76.3319 51.6338 76.6296Z" fill="#B16668"/>
<path d="M50.9428 72.5835C50.9649 72.909 50.7289 73.1889 50.4158 73.2093C50.1027 73.2297 49.8309 72.9822 49.8088 72.6572C49.7866 72.3317 50.0226 72.0519 50.3362 72.0314C50.6493 72.0114 50.9211 72.2585 50.9428 72.5835Z" fill="#263238"/>
<path d="M54.7823 72.3387C54.8023 72.6344 54.5881 72.8891 54.3031 72.9075C53.99 72.9279 53.7736 72.7307 53.7514 72.4056C53.7314 72.11 53.9461 71.8552 54.2307 71.8365C54.5152 71.8182 54.7623 72.0427 54.7823 72.3387Z" fill="#263238"/>
<path d="M52.1279 71.8062L52.5394 75.2389L54.2984 74.5091L52.1279 71.8062Z" fill="#F28F8F"/>
<path d="M48.8869 71.1L49.9102 70.1274C50.176 70.4248 50.1628 70.8836 49.8803 71.1524C49.5979 71.4208 49.1527 71.3973 48.8869 71.1Z" fill="#263238"/>
<path d="M54.0019 69.814L55.1363 70.6724C54.9093 70.997 54.4713 71.0681 54.1578 70.8313C53.8447 70.594 53.7748 70.1386 54.0019 69.814Z" fill="#263238"/>
<path d="M37.6699 38.6088C38.4976 38.4525 39.3253 38.415 40.1518 38.4964C40.9782 38.5773 41.7386 38.7848 42.4309 39.1196C43.1231 39.4536 43.7165 39.9158 44.2111 40.5071C44.7053 41.0975 45.0342 41.8243 45.1969 42.6869C45.3298 43.3911 45.3358 44.0241 45.2135 44.5848C45.0908 45.1462 44.8974 45.6659 44.6324 46.1443C44.3675 46.6227 44.0642 47.0726 43.7242 47.4918C43.3838 47.9122 43.0618 48.3106 42.7598 48.6854C42.4564 49.062 42.2 49.4441 41.9908 49.8297C41.7808 50.2161 41.6867 50.608 41.7067 51.005C41.7075 51.2057 41.6598 51.3876 41.5635 51.5511C41.4668 51.716 41.3216 51.8157 41.1282 51.8523L39.12 52.231C38.9262 52.2681 38.7413 52.2302 38.5654 52.1169C38.3894 52.0044 38.2919 51.8502 38.2727 51.653C38.1781 50.9594 38.2092 50.3289 38.3664 49.7611C38.524 49.1937 38.7438 48.6688 39.0267 48.1866C39.3096 47.7044 39.6269 47.2575 39.9775 46.8447C40.3277 46.4319 40.6502 46.0383 40.9446 45.6634C41.2381 45.2894 41.4707 44.926 41.6411 44.575C41.8123 44.2235 41.8626 43.8627 41.7927 43.4929C41.6662 42.8241 41.2811 42.3265 40.6357 42.0015C39.9908 41.6769 39.2014 41.6023 38.268 41.7783C36.771 42.0607 35.8121 43.0171 35.3904 44.647C35.3388 44.8574 35.2737 45.0197 35.1957 45.1347C35.1169 45.2506 34.9627 45.3294 34.7335 45.3724L32.5941 45.7763C32.4361 45.8061 32.2887 45.7788 32.1549 45.6949C32.0207 45.611 31.9368 45.4806 31.9036 45.3047C31.8043 44.6853 31.8755 44.0199 32.1149 43.3089C32.3538 42.5983 32.7296 41.9257 33.2382 41.2914C33.7481 40.6575 34.3808 40.0951 35.1365 39.6065C35.8926 39.1175 36.7365 38.7848 37.6699 38.6088ZM41.5593 53.4128C41.7527 53.3761 41.9333 53.4153 42.1003 53.5295C42.2681 53.6436 42.37 53.7974 42.4066 53.9913L42.8454 56.3155C42.882 56.5098 42.8432 56.6904 42.7291 56.8574C42.6149 57.0252 42.4616 57.1271 42.2677 57.1633L39.9963 57.5922C39.802 57.6285 39.6214 57.5901 39.454 57.4755C39.2861 57.3614 39.1843 57.208 39.1477 57.0137L38.7089 54.6891C38.6727 54.4957 38.7115 54.315 38.8252 54.1472C38.9402 53.9802 39.0936 53.878 39.2879 53.8413L41.5593 53.4128Z" fill="#1CDEEC"/>
<path d="M59.3188 48.2058C59.8262 48.4891 60.282 48.8346 60.6841 49.2435C61.0863 49.652 61.3973 50.0976 61.6166 50.5812C61.8352 51.0651 61.9451 51.5725 61.9459 52.1041C61.9472 52.6366 61.7994 53.167 61.5046 53.6961C61.2631 54.128 60.9857 54.4667 60.6731 54.7095C60.3604 54.9528 60.0277 55.1432 59.6754 55.2795C59.3235 55.4154 58.9639 55.5198 58.598 55.5918C58.2321 55.6638 57.8857 55.7323 57.559 55.798C57.2318 55.8636 56.9272 55.9526 56.6452 56.0642C56.3632 56.1754 56.14 56.3415 55.9751 56.5609C55.8865 56.6678 55.7809 56.7428 55.6573 56.7875C55.5334 56.8314 55.4119 56.8204 55.2935 56.7547L54.062 56.0676C53.9427 56.0012 53.8617 55.8993 53.8179 55.7613C53.7744 55.6241 53.791 55.4989 53.8681 55.386C54.125 54.9766 54.4202 54.6567 54.7551 54.4254C55.089 54.1941 55.4379 54.013 55.8013 53.8827C56.1643 53.7523 56.5302 53.6556 56.8987 53.5917C57.2668 53.5282 57.6118 53.4618 57.9339 53.3932C58.2546 53.325 58.5384 53.2356 58.7846 53.1248C59.0304 53.0136 59.217 52.8453 59.3439 52.6183C59.5727 52.2085 59.588 51.774 59.3899 51.316C59.1918 50.8581 58.8063 50.47 58.2338 50.1505C57.3153 49.6384 56.3841 49.7211 55.4392 50.398C55.3191 50.4862 55.213 50.5441 55.1201 50.5701C55.0273 50.5969 54.911 50.5705 54.7708 50.4921L53.4583 49.7603C53.3608 49.7057 53.2952 49.6265 53.2607 49.5225C53.2266 49.4182 53.2402 49.3125 53.3003 49.2043C53.5214 48.8324 53.8536 48.5112 54.2954 48.2403C54.7367 47.9689 55.2326 47.7785 55.783 47.6677C56.3338 47.557 56.9174 47.5395 57.5343 47.6141C58.152 47.689 58.7463 47.8863 59.3188 48.2058ZM54.8322 57.7716C54.9506 57.8381 55.0294 57.9386 55.0682 58.0732C55.1061 58.2083 55.0916 58.3348 55.026 58.4532L54.2302 59.8799C54.1642 59.9987 54.0637 60.0771 53.929 60.1155C53.794 60.1538 53.6679 60.1393 53.5491 60.0733L52.1556 59.2958C52.0368 59.2298 51.9579 59.1293 51.92 58.9951C51.8817 58.86 51.8957 58.7335 51.9622 58.6147L52.758 57.188C52.824 57.07 52.9245 56.9907 53.0592 56.9524C53.1938 56.9145 53.3207 56.9281 53.4396 56.9942L54.8322 57.7716Z" fill="#1CDEEC"/>
<g opacity="0.2">
<path d="M59.3188 48.2058C59.8262 48.4891 60.282 48.8346 60.6841 49.2435C61.0863 49.652 61.3973 50.0976 61.6166 50.5812C61.8352 51.0651 61.9451 51.5725 61.9459 52.1041C61.9472 52.6366 61.7994 53.167 61.5046 53.6961C61.2631 54.128 60.9857 54.4667 60.6731 54.7095C60.3604 54.9528 60.0277 55.1432 59.6754 55.2795C59.3235 55.4154 58.9639 55.5198 58.598 55.5918C58.2321 55.6638 57.8857 55.7323 57.559 55.798C57.2318 55.8636 56.9272 55.9526 56.6452 56.0642C56.3632 56.1754 56.14 56.3415 55.9751 56.5609C55.8865 56.6678 55.7809 56.7428 55.6573 56.7875C55.5334 56.8314 55.4119 56.8204 55.2935 56.7547L54.062 56.0676C53.9427 56.0012 53.8617 55.8993 53.8179 55.7613C53.7744 55.6241 53.791 55.4989 53.8681 55.386C54.125 54.9766 54.4202 54.6567 54.7551 54.4254C55.089 54.1941 55.4379 54.013 55.8013 53.8827C56.1643 53.7523 56.5302 53.6556 56.8987 53.5917C57.2668 53.5282 57.6118 53.4618 57.9339 53.3932C58.2546 53.325 58.5384 53.2356 58.7846 53.1248C59.0304 53.0136 59.217 52.8453 59.3439 52.6183C59.5727 52.2085 59.588 51.774 59.3899 51.316C59.1918 50.8581 58.8063 50.47 58.2338 50.1505C57.3153 49.6384 56.3841 49.7211 55.4392 50.398C55.3191 50.4862 55.213 50.5441 55.1201 50.5701C55.0273 50.5969 54.911 50.5705 54.7708 50.4921L53.4583 49.7603C53.3608 49.7057 53.2952 49.6265 53.2607 49.5225C53.2266 49.4182 53.2402 49.3125 53.3003 49.2043C53.5214 48.8324 53.8536 48.5112 54.2954 48.2403C54.7367 47.9689 55.2326 47.7785 55.783 47.6677C56.3338 47.557 56.9174 47.5395 57.5343 47.6141C58.152 47.689 58.7463 47.8863 59.3188 48.2058ZM54.8322 57.7716C54.9506 57.8381 55.0294 57.9386 55.0682 58.0732C55.1061 58.2083 55.0916 58.3348 55.026 58.4532L54.2302 59.8799C54.1642 59.9987 54.0637 60.0771 53.929 60.1155C53.794 60.1538 53.6679 60.1393 53.5491 60.0733L52.1556 59.2958C52.0368 59.2298 51.9579 59.1293 51.92 58.9951C51.8817 58.86 51.8957 58.7335 51.9622 58.6147L52.758 57.188C52.824 57.07 52.9245 56.9907 53.0592 56.9524C53.1938 56.9145 53.3207 56.9281 53.4396 56.9942L54.8322 57.7716Z" fill="black"/>
</g>
<path d="M29.3122 63.847C29.4311 63.7375 29.5729 63.6864 29.7386 63.6923C29.9043 63.6996 30.0419 63.7618 30.1514 63.8802L31.4635 65.3018C31.5734 65.4206 31.6245 65.5625 31.6177 65.7282C31.6113 65.8939 31.5487 66.0315 31.4303 66.141L30.0407 67.4232C29.9218 67.5331 29.7804 67.5843 29.6147 67.5774C29.4485 67.5711 29.3114 67.5084 29.2019 67.3896L27.8889 65.968C27.7795 65.8496 27.7279 65.7082 27.7352 65.5416C27.7415 65.3763 27.8037 65.2391 27.923 65.1292L29.3122 63.847ZM20.1954 55.2669C20.7006 54.8 21.2587 54.4149 21.867 54.1124C22.4758 53.8104 23.0926 53.6242 23.7176 53.5565C24.3429 53.4879 24.9547 53.5514 25.5536 53.7465C26.153 53.9416 26.6961 54.3029 27.1835 54.8311C27.5814 55.2618 27.8595 55.6984 28.018 56.1398C28.1773 56.582 28.2681 57.0263 28.2915 57.4731C28.3154 57.9204 28.3 58.3635 28.2468 58.8018C28.1923 59.2415 28.142 59.6568 28.0951 60.0487C28.0483 60.4411 28.0359 60.8168 28.0581 61.1751C28.0798 61.5342 28.1846 61.8469 28.3707 62.1136C28.4585 62.2524 28.5041 62.399 28.5083 62.5549C28.5126 62.7108 28.4551 62.8429 28.3371 62.9524L27.1089 64.086C26.9905 64.1954 26.8457 64.2495 26.6748 64.2478C26.5036 64.2461 26.369 64.1818 26.2701 64.0527C25.9038 63.6122 25.652 63.162 25.5153 62.6997C25.3785 62.238 25.3031 61.7787 25.2899 61.3216C25.2771 60.8654 25.3027 60.4172 25.367 59.9789C25.4309 59.541 25.4837 59.1282 25.5251 58.7405C25.5664 58.3533 25.5702 58.0014 25.5361 57.6827C25.5021 57.3654 25.3807 57.0932 25.1719 56.867C24.7941 56.4576 24.3114 56.2808 23.7227 56.3349C23.1344 56.3894 22.555 56.6795 21.9842 57.206C21.0687 58.0517 20.8178 59.1316 21.2318 60.4441C21.2876 60.6128 21.3132 60.7538 21.3085 60.8671C21.3038 60.9817 21.2318 61.1027 21.0917 61.2322L19.7826 62.4403C19.6859 62.5298 19.5726 62.5745 19.4431 62.5745C19.3131 62.5745 19.199 62.5204 19.0997 62.413C18.7623 62.0262 18.5225 61.5346 18.3802 60.9374C18.2383 60.3401 18.206 59.7118 18.2843 59.0502C18.3627 58.3899 18.5574 57.7262 18.8697 57.0591C19.1824 56.3911 19.6241 55.7943 20.1954 55.2669Z" fill="#1CDEEC"/>
<g opacity="0.6">
<path d="M29.3122 63.847C29.4311 63.7375 29.5729 63.6864 29.7386 63.6923C29.9043 63.6996 30.0419 63.7618 30.1514 63.8802L31.4635 65.3018C31.5734 65.4206 31.6245 65.5625 31.6177 65.7282C31.6113 65.8939 31.5487 66.0315 31.4303 66.141L30.0407 67.4232C29.9218 67.5331 29.7804 67.5843 29.6147 67.5774C29.4485 67.5711 29.3114 67.5084 29.2019 67.3896L27.8889 65.968C27.7795 65.8496 27.7279 65.7082 27.7352 65.5416C27.7415 65.3763 27.8037 65.2391 27.923 65.1292L29.3122 63.847ZM20.1954 55.2669C20.7006 54.8 21.2587 54.4149 21.867 54.1124C22.4758 53.8104 23.0926 53.6242 23.7176 53.5565C24.3429 53.4879 24.9547 53.5514 25.5536 53.7465C26.153 53.9416 26.6961 54.3029 27.1835 54.8311C27.5814 55.2618 27.8595 55.6984 28.018 56.1398C28.1773 56.582 28.2681 57.0263 28.2915 57.4731C28.3154 57.9204 28.3 58.3635 28.2468 58.8018C28.1923 59.2415 28.142 59.6568 28.0951 60.0487C28.0483 60.4411 28.0359 60.8168 28.0581 61.1751C28.0798 61.5342 28.1846 61.8469 28.3707 62.1136C28.4585 62.2524 28.5041 62.399 28.5083 62.5549C28.5126 62.7108 28.4551 62.8429 28.3371 62.9524L27.1089 64.086C26.9905 64.1954 26.8457 64.2495 26.6748 64.2478C26.5036 64.2461 26.369 64.1818 26.2701 64.0527C25.9038 63.6122 25.652 63.162 25.5153 62.6997C25.3785 62.238 25.3031 61.7787 25.2899 61.3216C25.2771 60.8654 25.3027 60.4172 25.367 59.9789C25.4309 59.541 25.4837 59.1282 25.5251 58.7405C25.5664 58.3533 25.5702 58.0014 25.5361 57.6827C25.5021 57.3654 25.3807 57.0932 25.1719 56.867C24.7941 56.4576 24.3114 56.2808 23.7227 56.3349C23.1344 56.3894 22.555 56.6795 21.9842 57.206C21.0687 58.0517 20.8178 59.1316 21.2318 60.4441C21.2876 60.6128 21.3132 60.7538 21.3085 60.8671C21.3038 60.9817 21.2318 61.1027 21.0917 61.2322L19.7826 62.4403C19.6859 62.5298 19.5726 62.5745 19.4431 62.5745C19.3131 62.5745 19.199 62.5204 19.0997 62.413C18.7623 62.0262 18.5225 61.5346 18.3802 60.9374C18.2383 60.3401 18.206 59.7118 18.2843 59.0502C18.3627 58.3899 18.5574 57.7262 18.8697 57.0591C19.1824 56.3911 19.6241 55.7943 20.1954 55.2669Z" fill="white"/>
</g>
<path d="M116.061 93.5706C114.845 92.875 109.734 89.9215 107.996 88.917C107.65 88.7168 107.435 88.5924 107.414 88.5804C106.561 88.0901 105.612 87.9504 104.574 88.1412C103.836 88.2771 103.054 88.5749 102.222 89.055C102.102 89.1244 101.986 89.2062 101.868 89.2808C99.9058 90.5204 98.2184 92.4732 96.8134 95.1579C95.3229 98.0061 94.5782 100.84 94.5782 103.661C94.5782 106.483 95.3305 108.463 96.8356 109.6C96.9907 109.717 97.1496 109.822 97.3114 109.914C98.7202 110.714 105.795 114.811 105.952 114.901C105.964 114.908 105.977 114.912 105.988 114.918C105.819 114.823 105.652 114.717 105.49 114.594C103.985 113.457 103.232 111.477 103.232 108.655C103.232 105.834 103.977 103.001 105.468 100.152C106.958 97.3058 108.761 95.2712 110.877 94.0494C112.892 92.886 114.632 92.7356 116.098 93.594C116.084 93.5868 116.073 93.5779 116.061 93.5706Z" fill="#1CDEEC"/>
<path opacity="0.4" d="M116.097 93.5959C114.632 92.7354 112.89 92.8845 110.875 94.0474C108.906 95.1849 107.207 97.0295 105.784 99.5727L97.1318 94.5757C98.4695 92.1858 100.05 90.4264 101.869 89.2805C101.984 89.2081 102.103 89.1229 102.223 89.0547C103.053 88.5733 103.837 88.2751 104.574 88.1431C105.613 87.9514 106.559 88.092 107.415 88.5819C107.437 88.5904 107.65 88.7182 107.995 88.9184C109.733 89.9195 114.845 92.8759 116.059 93.5703C116.072 93.5788 116.085 93.5874 116.097 93.5959Z" fill="black"/>
<path opacity="0.3" d="M105.988 114.917C105.976 114.913 105.963 114.909 105.95 114.9C105.792 114.811 98.7208 110.713 97.3108 109.912C97.1489 109.822 96.9913 109.716 96.8336 109.601C95.3299 108.463 94.5758 106.482 94.5758 103.662C94.5758 100.838 95.3213 98.005 96.8123 95.1593C96.9146 94.9591 97.0211 94.7631 97.1318 94.5757L105.784 99.5727C105.677 99.7601 105.571 99.9561 105.469 100.152C103.978 103.002 103.232 105.835 103.232 108.655C103.232 111.479 103.982 113.456 105.49 114.593C105.652 114.717 105.818 114.823 105.988 114.917Z" fill="black"/>
<path d="M112.283 20.4682C116.485 18.0421 120.062 17.0108 123.012 17.3733C124.259 17.5267 125.399 17.9067 126.435 18.5073C126.407 18.4911 126.379 18.472 126.351 18.4562C125.337 17.8837 119.229 14.3623 117.834 13.541C116.784 12.9225 115.625 12.5352 114.358 12.3793C111.408 12.0168 107.831 13.0481 103.629 15.4742C97.102 19.2426 91.8418 24.7772 87.8484 32.0788C83.8543 39.3805 81.8874 46.8402 81.9471 54.4575L90.6008 59.4519C90.5408 51.8346 92.508 44.3753 96.5022 37.0732C100.496 29.7712 105.757 24.2366 112.283 20.4682Z" fill="#1CDEEC"/>
<path opacity="0.2" d="M126.351 18.4577C125.337 17.8911 124.225 17.5248 123.011 17.3714C120.063 17.0093 116.485 18.0402 112.285 20.4684C105.758 24.2343 100.497 29.7723 96.5014 37.0739C96.3352 37.3764 96.1733 37.6831 96.0157 37.9856L87.3637 32.9886C87.5213 32.6861 87.6832 32.3794 87.8493 32.0769C91.8409 24.7753 97.102 19.2416 103.628 15.4715C107.833 13.0475 111.407 12.0166 114.359 12.3787C115.625 12.5363 116.783 12.9197 117.835 13.5417C119.228 14.3639 125.338 17.8826 126.351 18.4577Z" fill="black"/>
<path opacity="0.3" d="M96.0157 37.9857C92.3479 44.9977 90.5459 52.1502 90.6013 59.4519L81.9492 54.4549C81.8938 47.1533 83.6915 40.0007 87.3636 32.9888L96.0157 37.9857Z" fill="black"/>
<path d="M118.162 34.6274C116.592 33.7937 114.495 34.1222 111.871 35.6093C111.783 37.1659 111.467 38.6885 110.916 40.1748C110.26 41.9448 108.352 45.5888 105.194 51.1081C101.915 56.8161 99.546 62.2667 98.0861 67.4609C96.6257 72.6556 95.8956 77.915 95.8956 83.2396L95.9403 85.8961L101.845 89.3037L104.594 90.8905L104.55 88.234C104.55 88.2105 104.551 88.1875 104.551 88.1641C104.557 82.8634 105.286 77.627 106.74 72.4554C108.2 67.2611 110.57 61.8105 113.848 56.1025C117.006 50.5832 118.914 46.9392 119.57 45.1692C120.225 43.4005 120.554 41.5819 120.554 39.7139C120.553 37.1715 119.756 35.4756 118.162 34.6274Z" fill="#1CDEEC"/>
<path opacity="0.3" d="M118.722 47.0977C117.746 49.1297 116.119 52.1288 113.848 56.1033C110.568 61.8117 108.2 67.2603 106.739 72.4575C105.286 77.6291 104.557 82.8647 104.549 88.1641V88.2323L104.596 90.8905L101.844 89.3058L95.9395 85.8978L95.8969 83.2395C95.8969 77.9145 96.6253 72.6577 98.0865 67.4605C99.5477 62.2676 101.916 56.8148 105.192 51.1064C107.467 47.136 109.094 44.137 110.074 42.105L118.722 47.0977Z" fill="black"/>
<path opacity="0.4" d="M120.554 39.7149C120.554 41.5808 120.226 43.3998 119.57 45.1677C119.386 45.6662 119.101 46.3094 118.722 47.0975L110.074 42.1048C110.453 41.3167 110.734 40.6734 110.918 40.175C111.467 38.6883 111.782 37.1675 111.872 35.6083C114.496 34.1216 116.592 33.7935 118.164 34.6285C119.757 35.4762 120.554 37.1717 120.554 39.7149Z" fill="black"/>
<path d="M102.314 52.6884L90.6013 59.4507C90.5412 51.8334 92.5085 44.3741 96.5026 37.0721C100.496 29.7708 105.757 24.2358 112.283 20.4678C116.485 18.0418 120.062 17.0104 123.012 17.373C125.963 17.7359 128.324 19.353 130.098 22.223C131.871 25.0942 132.758 28.6743 132.758 32.9658C132.758 35.311 132.475 37.7788 131.908 40.3706C131.342 42.9628 130.448 45.8038 129.226 48.8931C128.511 50.6972 126.797 54.0311 124.085 58.8948C121.492 63.5313 119.867 66.685 119.212 68.3541C118.556 70.0244 118.005 72.0611 117.558 74.4646C117.111 76.8685 116.827 80.0124 116.708 83.8958L104.593 90.8903L104.548 88.2338C104.548 82.9092 105.279 77.6498 106.739 72.4552C108.199 67.261 110.568 61.8103 113.847 56.1023C117.005 50.5831 118.913 46.9391 119.569 45.169C120.224 43.4003 120.552 41.5817 120.552 39.7137C120.552 37.1709 119.755 35.4754 118.161 34.6272C116.566 33.7804 114.428 34.1297 111.746 35.6786C109.004 37.262 106.753 39.6383 104.996 42.8077C103.238 45.9789 102.344 49.2723 102.314 52.6884Z" fill="#1CDEEC"/>
<path d="M110.852 94.0728C113.028 92.817 114.883 92.7395 116.418 93.8394C117.953 94.941 118.72 96.9015 118.72 99.7224C118.72 102.545 117.96 105.398 116.44 108.281C114.92 111.164 113.087 113.227 110.941 114.465C108.795 115.704 106.97 115.755 105.465 114.618C103.96 113.481 103.207 111.5 103.207 108.679C103.207 105.858 103.952 103.024 105.443 100.176C106.934 97.3292 108.736 95.2946 110.852 94.0728Z" fill="#1CDEEC"/>
</svg>
