<svg width="199" height="199" viewBox="0 0 199 199" fill="none" xmlns="http://www.w3.org/2000/svg">
<path d="M34.3414 178.146C-1.64453 157.369 -1.64453 123.684 34.3414 102.907C70.3274 82.1311 128.673 82.1311 164.659 102.907C200.645 123.684 200.645 157.369 164.659 178.146C128.673 198.923 70.3274 198.923 34.3414 178.146Z" fill="#F5F5F5"/>
<path d="M63.1399 179.147C78.7543 179.147 91.4122 171.839 91.4122 162.824C91.4122 153.809 78.7543 146.501 63.1399 146.501C47.5255 146.501 34.8676 153.809 34.8676 162.824C34.8676 171.839 47.5255 179.147 63.1399 179.147Z" fill="#E0E0E0"/>
<path d="M128.493 155.205C148.1 144.63 159.729 128.149 154.467 118.393C149.205 108.636 129.045 109.299 109.438 119.873C89.831 130.447 78.2021 146.928 83.4639 156.685C88.7257 166.442 108.886 165.779 128.493 155.205Z" fill="#E0E0E0"/>
<path d="M147.997 132.022C151.918 127.348 158.059 124.302 164.965 122.506C171.783 120.732 173.005 116.537 168.486 115.176C163.362 113.633 156.97 116.469 152.848 120.412C145.664 127.285 144.764 132.546 144.764 132.546L147.997 132.022Z" fill="#1CDEEC"/>
<path opacity="0.15" d="M147.997 132.022C151.918 127.348 158.059 124.302 164.965 122.506C171.783 120.732 173.005 116.537 168.486 115.176C163.362 113.633 156.97 116.469 152.848 120.412C145.664 127.285 144.764 132.546 144.764 132.546L147.997 132.022Z" fill="black"/>
<path d="M145.978 131.749C145.949 131.749 145.919 131.742 145.891 131.728C145.792 131.68 145.751 131.561 145.799 131.462C151.618 119.523 164.495 116.586 167.625 116.807C167.735 116.815 167.817 116.911 167.809 117.021C167.801 117.13 167.7 117.212 167.596 117.204C164.539 116.97 151.886 119.882 146.157 131.637C146.123 131.708 146.051 131.749 145.978 131.749Z" fill="white"/>
<path d="M144.763 133.263C144.763 134.108 145.678 134.619 146.407 134.194C150.053 132.071 155.371 130.899 163.977 133.348C168.553 134.65 170.805 133.779 171.77 131.915C172.842 129.846 170.571 127.846 167.987 126.902C159.179 123.684 151.23 125.881 144.763 132.301L144.763 133.263Z" fill="#1CDEEC"/>
<path d="M145.264 133.434C145.209 133.434 145.155 133.412 145.116 133.368C145.043 133.286 145.05 133.16 145.132 133.087C152.736 126.29 164.518 127.613 168.976 130.264C169.071 130.32 169.102 130.443 169.046 130.537C168.989 130.632 168.867 130.662 168.773 130.606C164.404 128.01 152.856 126.716 145.397 133.384C145.359 133.418 145.312 133.434 145.264 133.434Z" fill="white"/>
<path d="M59.667 149.113C56.3246 144.009 50.5858 140.26 43.94 137.661C37.379 135.095 36.6602 130.786 41.3088 129.967C46.5783 129.039 52.5917 132.61 56.2195 137.012C62.5421 144.685 62.8155 150.015 62.8155 150.015L59.667 149.113Z" fill="#1CDEEC"/>
<path opacity="0.15" d="M59.667 149.113C56.3246 144.009 50.5858 140.26 43.94 137.661C37.379 135.095 36.6602 130.786 41.3088 129.967C46.5783 129.039 52.5917 132.61 56.2195 137.012C62.5421 144.685 62.8155 150.015 62.8155 150.015L59.667 149.113Z" fill="black"/>
<path d="M61.7039 149.08C61.7334 149.083 61.7632 149.08 61.7927 149.07C61.897 149.034 61.9515 148.92 61.9153 148.817C57.5456 136.274 45.1053 131.838 41.9707 131.689C41.8608 131.684 41.7681 131.769 41.7629 131.879C41.7582 131.989 41.8493 132.082 41.9532 132.087C45.0162 132.214 57.2372 136.598 61.5396 148.948C61.5654 149.022 61.6311 149.071 61.7039 149.08Z" fill="white"/>
<path d="M62.845 149.772C62.6985 151.003 61.3063 151.641 60.2767 150.951C56.9032 148.691 51.8761 147.225 43.6419 148.545C38.9447 149.298 36.811 148.167 36.0723 146.203C35.252 144.021 37.7431 142.303 40.4205 141.67C49.5462 139.514 57.1806 142.633 62.845 149.772Z" fill="#1CDEEC"/>
<path d="M62.2137 150.838C62.2683 150.844 62.3248 150.828 62.369 150.789C62.4514 150.716 62.4589 150.591 62.3861 150.508C55.6372 142.862 43.7816 142.786 39.041 144.892C38.9407 144.937 38.8953 145.055 38.9399 145.155C38.9849 145.255 39.1023 145.3 39.2026 145.256C43.8468 143.193 55.4669 143.271 62.0876 150.772C62.1218 150.81 62.1668 150.832 62.2137 150.838Z" fill="white"/>
<path d="M151.568 58.1761L151.569 58.1733L151.506 58.1411C151.503 58.1399 151.501 58.1387 151.499 58.1375L136.328 49.4038C136.323 49.4014 136.318 49.399 136.313 49.3962L136.225 49.3508L136.223 49.3548C129.136 45.7796 119.679 46.8518 109.507 53.4287C89.0728 66.6423 73.5014 97.0567 74.7277 121.361C75.339 133.475 80.0095 141.782 87.07 145.433L87.0685 145.436L87.1309 145.468C87.1337 145.469 87.1361 145.471 87.1389 145.472L102.313 154.208C102.316 154.208 102.318 154.21 102.32 154.211L102.395 154.249L102.396 154.246C109.485 157.832 118.95 156.763 129.13 150.18C149.564 136.966 165.136 106.553 163.91 82.2487C163.299 70.1344 158.628 61.8273 151.568 58.1761Z" fill="#37474F"/>
<path d="M101.797 153.931L87.1437 145.47C87.1326 145.471 87.1326 145.471 87.1326 145.471L87.0645 145.43C80.008 141.769 75.3394 133.462 74.7293 121.365C74.182 110.526 76.9828 98.4786 82.0505 87.2896L82.1528 87.0444L97.2274 96.0221C92.1485 107.211 89.359 119.259 89.9058 130.098C90.5036 141.952 94.9895 150.158 101.797 153.931Z" fill="#263238"/>
<path d="M129.13 150.18C149.564 136.966 165.136 106.552 163.91 82.2483C162.683 57.9449 145.124 48.9544 124.689 62.1684C104.255 75.382 88.6835 105.796 89.9098 130.1C91.1364 154.404 108.696 163.393 129.13 150.18Z" fill="#455A64"/>
<path d="M146.435 56.291L120.825 109.042L115.313 103.068C113.612 101.22 111.188 100.161 108.663 100.161C106.377 100.161 104.192 101.012 102.508 102.561C98.8433 105.947 98.6148 111.69 102 115.362L116.521 131.092C118.129 132.834 120.319 133.863 122.687 133.991C122.854 134 123.021 134.004 123.189 134.004C123.622 134.004 124.061 133.973 124.502 133.911C127.473 133.469 130.025 131.597 131.327 128.905L160.7 68.4049C157.701 61.6974 152.684 57.526 146.435 56.291Z" fill="#37474F"/>
<path d="M167.234 38.9134C167.074 38.8214 166.91 38.7343 166.742 38.6527C162.832 36.7622 158.114 38.3928 156.227 42.2912L123.637 109.418L121.785 107.412C121.234 106.813 120.61 106.321 119.938 105.937C118.965 105.379 114.835 102.987 114.166 102.601C111.27 100.93 107.491 101.245 104.89 103.636C101.708 106.576 101.509 111.562 104.448 114.75L118.969 130.481C119.522 131.08 120.154 131.58 120.844 131.973C121.792 132.512 125.909 134.898 126.582 135.289C127.644 135.905 128.844 136.267 130.103 136.335C130.622 136.362 131.143 136.341 131.677 136.265C134.256 135.882 136.474 134.256 137.604 131.919L176.16 52.5059C177.97 48.7686 176.558 44.2919 173.02 42.2542C172.859 42.1606 168.264 39.506 167.234 38.9134Z" fill="#1CDEEC"/>
<path opacity="0.15" d="M167.234 38.9134C167.074 38.8214 166.91 38.7343 166.742 38.6527C162.832 36.7622 158.114 38.3928 156.227 42.2912L123.637 109.418L121.785 107.412C121.234 106.813 120.61 106.321 119.938 105.937C118.965 105.379 114.835 102.987 114.166 102.601C111.27 100.93 107.491 101.245 104.89 103.636C101.708 106.576 101.509 111.562 104.448 114.75L118.969 130.481C119.522 131.08 120.154 131.58 120.844 131.973C121.792 132.512 125.909 134.898 126.582 135.289C127.644 135.905 128.844 136.267 130.103 136.335C130.622 136.362 131.143 136.341 131.677 136.265C134.256 135.882 136.474 134.256 137.604 131.919L176.16 52.5059C177.97 48.7686 176.558 44.2919 173.02 42.2542C172.859 42.1606 168.264 39.506 167.234 38.9134Z" fill="black"/>
<path opacity="0.15" d="M126.581 135.288C125.91 134.899 121.792 132.512 120.844 131.971C120.154 131.578 119.52 131.078 118.968 130.481L104.447 114.751C103.787 114.032 103.291 113.217 102.946 112.36L108.72 115.692C109.062 116.552 109.565 117.368 110.229 118.087L124.75 133.817C125.291 134.402 125.906 134.896 126.581 135.288Z" fill="black"/>
<path opacity="0.15" d="M163.83 43.2072C163.089 43.8671 162.466 44.6822 162.006 45.6275L128.486 114.673L123.638 109.418L156.229 42.2918C156.684 41.343 157.314 40.5315 158.056 39.8716L163.83 43.2072Z" fill="black"/>
<path d="M172.522 41.9901C168.612 40.0996 163.894 41.7302 162.007 45.6282L128.486 114.673L121.786 107.412C118.858 104.232 113.871 104.03 110.67 106.973C107.488 109.913 107.29 114.899 110.228 118.087L124.75 133.818C126.145 135.329 128.046 136.223 130.103 136.334C130.622 136.362 131.143 136.341 131.678 136.265C134.257 135.882 136.475 134.256 137.605 131.919L176.16 52.5056C178.052 48.5977 176.422 43.881 172.522 41.9901Z" fill="#1CDEEC"/>
<path d="M62.5767 49.745C59.5412 49.745 57.462 50.5354 55.3057 53.6068C53.328 56.4238 47.887 65.8162 47.887 65.8162C47.887 65.8162 43.9193 57.6516 43.507 56.0226C43.0947 54.394 43.1313 53.6708 43.5233 52.9636C44.0061 52.0924 44.4367 51.329 44.5282 50.1633C44.6819 48.2079 45.1623 46.5323 44.7229 46.4766C43.5074 46.4069 43.4616 47.9655 42.8236 48.8877C42.596 49.2164 41.8517 49.2646 41.6006 48.7536C41.3323 48.2083 41.4768 47.314 41.3466 46.6692C41.4047 46.1116 41.4553 45.9313 41.5186 45.6046C41.8608 45.6842 42.3587 45.6937 42.9116 45.6436C43.4361 46.4682 43.7963 46.8149 44.5282 46.4802C44.625 46.3258 44.2138 45.2687 43.7378 44.5065C43.6626 44.3859 43.548 44.2944 43.4111 44.2566C42.6756 44.0536 41.8417 44.0038 40.7118 44.1825C40.5785 44.2036 40.4412 44.2629 40.366 44.3748C39.9445 44.9996 39.6921 45.6324 39.5895 45.954C39.5353 46.1236 39.3785 46.1192 39.3391 45.9723C38.9511 44.0504 38.9455 41.3213 38.9455 40.0413C38.9455 39.036 37.4741 38.878 37.4228 40.3183C37.3702 41.7937 37.332 44.5248 37.5223 46.1184C37.5449 46.2919 37.3487 46.3751 37.2775 46.1849C37.0212 45.5019 36.3967 43.4458 36.1348 39.8961C36.0644 38.9425 34.5201 38.7848 34.5317 40.1269C34.5631 43.8044 35.4156 47.195 35.4156 47.195C35.4606 47.3633 35.3082 47.5106 35.1916 47.32C34.6781 46.4802 33.8706 44.3943 33.4619 42.9591C33.1343 41.8077 31.5948 42.0998 31.8639 43.5358C32.3467 46.1112 33.1112 49.3701 34.2499 51.6964C35.4678 54.1847 36.5217 55.4292 37.125 57.3838C37.7284 59.3388 40.2342 70.4075 42.912 74.7219C45.0098 78.1021 47.4102 77.7912 49.9916 76.0082C52.573 74.2252 61.8034 61.3642 61.8034 61.3642L62.5767 49.745Z" fill="#ECBFBF"/>
<path d="M47.887 65.8159C47.887 65.8159 49.1817 68.0113 49.3783 69.7644C49.3783 69.7644 50.0035 67.2539 48.4657 64.8213L47.887 65.8159Z" fill="#CBB5B5"/>
<path d="M63.2215 49.755C61.6773 49.5961 59.7577 49.5428 57.6129 50.8908C55.4681 52.2389 54.7242 54.121 53.6862 55.7636C52.6483 57.4065 49.0563 63.2308 49.0563 63.2308C49.0563 63.2308 50.3733 68.7594 55.6134 69.8985L63.4579 59.2544L63.2215 49.755Z" fill="#455A64"/>
<path d="M70.2566 146.952C70.6395 146.904 71.1815 148.259 71.1895 148.702C71.197 149.144 70.7537 150.095 70.1662 150.986C69.5792 151.877 68.7657 152.979 68.2379 154.419C67.7882 155.645 67.3731 156.45 66.121 158.055C64.726 159.843 61.4568 162.833 56.4878 161.531C55.2751 161.214 54.6685 160.831 54.2295 160.39C53.859 160.018 53.6831 159.414 53.8821 158.87L70.2566 146.952Z" fill="#263238"/>
<path d="M60.498 145.402C60.494 145.416 60.4904 145.431 60.4873 145.445C60.4013 145.81 60.4741 146.191 60.5203 146.563C60.6827 147.87 60.5088 149.216 60.0192 150.439C59.6901 151.26 59.2192 152.024 58.6366 152.689C58.0432 153.367 57.072 154.083 56.3146 154.567C53.7973 156.174 53.527 157.247 53.8817 158.87C54.7234 160.76 60.4292 161.911 63.7091 159.095C64.9906 157.994 65.9634 157.028 66.831 154.85C67.4411 153.318 67.8976 152.451 68.4855 151.348C69.1211 150.155 70.3238 148.808 70.3589 147.578C70.378 146.902 69.7089 145.644 69.0586 144.608C68.462 143.658 67.8475 142.754 67.3106 142.86L67.4586 143.397C67.0117 143.862 66.3621 144.035 65.9701 144.581C65.4865 145.254 65.5041 146.158 65.2032 146.93C65.1741 147.005 65.1335 147.086 65.0571 147.109C64.9759 147.134 64.8876 147.077 64.8478 147.002C64.808 146.928 64.8044 146.839 64.8016 146.754C64.79 146.368 64.7781 145.982 64.7666 145.596C64.7598 145.375 64.7459 145.134 64.599 144.969C64.2886 144.618 63.5228 144.659 63.0977 144.641C62.5147 144.618 61.9603 144.708 61.3832 144.745C61.1686 144.758 61.0078 144.745 60.8252 144.892C60.6668 145.02 60.5529 145.206 60.498 145.402Z" fill="#37474F"/>
<path d="M52.066 122.264C53.3921 126.621 59.5878 141.708 59.9599 142.615C60.3324 143.523 61.1925 145.61 61.1925 145.61C61.1925 145.61 62.2046 146.027 63.7091 145.715C63.8392 147.16 64.0573 149.426 64.1433 150.569C64.1719 151.894 64.2874 153.531 64.0024 154.841C63.7592 155.957 63.4782 157.126 63.2677 158.244C63.1745 158.739 63.0814 159.234 63.007 159.733C62.9278 160.259 62.8768 160.828 63.1316 161.296C63.251 161.515 63.4305 161.696 63.6231 161.854C64.4816 162.561 65.637 162.861 66.7454 162.771C67.3317 162.723 67.9219 162.565 68.3999 162.223C69.3626 161.533 69.7017 160.335 70.1917 159.316C70.7238 158.211 70.5511 158.09 70.5965 156.907C70.6283 156.08 70.8575 153.977 71.1887 151.781C71.5198 149.585 72.945 141.864 73.6288 134.169C74.102 128.842 73.6284 123.901 73.6284 123.901C79.0655 109.13 81.4861 100.349 82.197 95.4432C82.9189 90.4598 82.5731 88.6867 82.4815 85.8184L56.0432 86.4548C53.9179 100.12 50.2869 116.419 52.066 122.264Z" fill="#ECBFBF"/>
<path d="M51.6533 111.356C52.1977 106.333 55.9544 87.0259 55.9544 87.0259H82.5906C82.5906 87.0259 82.7589 90.7325 82.7108 92.4343C82.6626 94.1362 82.1162 97.2497 81.1622 101.183C80.2086 105.117 76.6867 116.262 76.0061 117.907C75.3251 119.552 74.0065 124.303 74.0065 124.303C74.66 133.236 72.9614 141.251 71.6874 151.904C71.6874 151.904 71.3188 153.343 67.5438 153.058C63.8754 152.781 63.1352 151.429 63.1352 151.429L62.8896 142.237C62.8896 142.237 60.8837 142.852 59.706 142.57C59.706 142.57 51.822 123.107 51.4407 121.935C51.0606 120.762 51.1084 116.378 51.6533 111.356Z" fill="#1CDEEC"/>
<path opacity="0.45" d="M51.6533 111.356C52.1977 106.333 55.9544 87.0259 55.9544 87.0259H82.5906C82.5906 87.0259 82.7589 90.7325 82.7108 92.4343C82.6626 94.1362 82.1162 97.2497 81.1622 101.183C80.2086 105.117 76.6867 116.262 76.0061 117.907C75.3251 119.552 74.0065 124.303 74.0065 124.303C74.66 133.236 72.9614 141.251 71.6874 151.904C71.6874 151.904 71.3188 153.343 67.5438 153.058C63.8754 152.781 63.1352 151.429 63.1352 151.429L62.8896 142.237C62.8896 142.237 60.8837 142.852 59.706 142.57C59.706 142.57 51.822 123.107 51.4407 121.935C51.0606 120.762 51.1084 116.378 51.6533 111.356Z" fill="black"/>
<path opacity="0.2" d="M62.9501 99.6124C59.1786 96.2115 58.3401 93.5059 58.3401 93.5059C61.1511 96.8236 64.9815 98.8279 64.9815 98.8279C64.9815 98.8279 61.4003 117.741 61.661 121.63C61.9213 125.519 62.8908 142.237 62.8908 142.237C62.898 142.398 60.3516 124.556 60.2791 123.13C60.0885 119.374 62.9501 99.6124 62.9501 99.6124Z" fill="black"/>
<path d="M71.252 161.375C71.6233 161.481 71.5767 162.589 71.4092 163C71.2416 163.41 70.5801 164.195 69.6882 164.784C68.7963 165.373 67.9665 166.197 67.1625 167.505C66.591 168.434 65.1502 170.202 63.202 171.37C61.2542 172.538 58.3751 172.946 56.2362 172.338C53.7376 171.629 53.5047 171.017 53.5282 170.074L71.252 161.375Z" fill="#263238"/>
<path d="M63.5208 155.588C62.8657 158.787 61.723 161.109 59.0736 163.078C56.9669 164.643 55.4362 165.439 53.7555 166.838C53.0395 167.435 52.9794 168.705 53.5282 170.074C54.6641 170.987 56.28 171.509 58.4507 171.505C60.8765 171.502 61.8098 171.074 63.202 170.121C64.0036 169.572 64.558 169.071 65.1033 168.524C66.2686 167.354 67.0809 165.911 67.9223 164.984C68.7637 164.056 70.5829 163.11 71.1003 161.991C71.3845 161.376 71.2639 159.955 71.0737 158.745C70.8989 157.635 71.2392 155.685 70.7035 155.571C70.7151 155.574 70.6307 156.366 70.6307 156.366C70.5869 156.546 70.4747 156.637 70.0994 156.767C69.8486 156.854 69.3364 156.841 69.0749 156.798C68.7688 156.747 68.5937 156.752 68.3899 156.992C68.0306 157.415 67.935 158.01 67.4745 158.36C67.4423 158.385 67.4077 158.408 67.3679 158.417C67.3285 158.426 67.2827 158.416 67.2568 158.385C67.2282 158.35 67.2318 158.3 67.2365 158.255C67.2807 157.858 67.3253 157.462 67.3695 157.065C67.383 156.945 67.3961 156.824 67.3794 156.704C67.348 156.483 67.1804 156.294 66.995 156.181C66.6706 155.984 66.2905 155.839 65.9255 155.737C65.5383 155.629 65.1395 155.571 64.7395 155.535C64.3375 155.498 63.918 155.49 63.5208 155.588Z" fill="#455A64"/>
<path d="M80.1835 50.8909C80.1835 50.8909 81.2807 52.3981 82.1591 55.4985C82.1591 55.4985 83.8315 62.5873 83.8315 70.9883C83.8315 78.0185 82.8827 89.4145 82.8827 89.4145C74.7213 93.5055 61.5551 91.0861 55.761 87.0965C55.9954 85.8297 56.1944 79.1759 56.6497 74.7864C56.9586 67.255 57.2125 63.3089 57.2658 59.9589C57.3721 53.2641 60.7041 49.8067 63.2211 49.7554L69.6126 49.8553L80.1835 50.8909Z" fill="#1CDEEC"/>
<path d="M82.1977 87.3472C80.9846 88.3461 78.6014 90.2657 78.1656 91.2324C77.6665 92.3397 77.3561 94.0061 77.0317 94.6497C76.7073 95.2932 77.2048 95.5937 77.9041 95.3693C78.603 95.1448 79.0245 94.547 79.5642 93.0991C80.1039 91.6511 81.6091 90.5176 81.6091 90.5176L82.1977 87.3472Z" fill="#CBB5B5"/>
<path d="M77.766 100.377C78.0554 100.937 78.7344 100.939 79.3628 100.99C80.2571 101.063 80.7622 101 81.6191 100.734C82.476 100.467 83.2751 99.96 83.7886 99.2237C84.4019 98.3437 84.5579 97.2356 84.9077 96.2215C85.6428 94.0902 87.8243 92.5564 88.1797 90.2993C88.3266 89.366 88.3277 88.2691 88.5924 87.69C88.748 87.3493 92.3336 81.1755 93.6124 78.5014C94.8414 75.9311 95.7604 74.7216 94.6464 71.6311C93.5324 68.5406 89.7371 57.6729 87.0526 53.8966C85.5298 51.7542 83.1132 51.1441 80.1839 50.8901C77.9555 56.6966 80.5492 62.6924 80.5492 62.6924L86.4444 74.0661C86.4444 74.0661 84.1527 81.8983 82.7199 86.254C82.3219 87.464 81.5176 88.2114 80.6137 89.5527C80.2213 90.1349 79.3182 91.1546 78.9974 91.7795C78.5843 92.5838 78.5951 93.0992 78.4012 94.2256C78.0924 96.0217 77.6279 100.11 77.766 100.377Z" fill="#ECBFBF"/>
<path d="M79.8694 50.8599C81.4089 50.9216 83.6218 51.1818 84.9455 51.8501C86.2693 52.5183 87.1843 53.3442 88.7078 56.3917C90.231 59.4395 92.4494 65.3622 92.4494 65.3622C92.4494 65.3622 91.7131 69.8309 84.6462 70.9907L79.8694 62.1838C79.8694 62.1838 77.7409 56.6969 79.8694 50.8599Z" fill="#455A64"/>
<path d="M61.5089 36.6345C61.7394 36.9704 61.8675 37.4293 62.0494 37.7962C62.3053 38.3128 62.5616 38.8362 62.9425 39.2748C63.8583 40.3299 65.1466 41.1032 66.3176 41.8499C67.0288 42.3036 67.8403 42.7302 68.7091 42.6057C69.5911 42.4791 70.5447 42.6705 71.443 42.7509C72.487 42.8445 73.5305 42.938 74.5745 43.0315L74.3978 46.3246C74.3978 46.3246 74.7858 45.4514 75.3163 44.4102C75.7725 43.5151 77.6741 38.9711 77.6813 38.954C78.6237 36.7025 79.7437 33.7028 78.6154 31.3375C78.3491 30.7795 77.9547 30.2593 77.3907 29.9334C77.5042 29.4991 77.54 29.1971 77.4942 28.8122C77.3426 27.5394 76.695 26.8114 75.8314 26.1758C74.9677 25.5402 73.9225 25.1995 72.8774 24.9591C71.4772 24.6372 70.0397 24.478 68.6033 24.4835C67.1741 24.4891 65.8125 24.7287 64.41 24.9651C63.6374 25.0953 62.8578 25.2003 62.0733 25.2091C61.7441 25.2127 61.3788 25.2346 61.0616 25.1609C60.6504 25.0654 60.2385 24.8636 59.8413 24.7204C59.7705 24.6949 59.6905 24.6698 59.6232 24.7028C59.5548 24.7363 59.5253 24.8171 59.5054 24.8907C59.2539 25.8113 59.5703 27.0081 60.1557 27.7615C59.9165 27.7312 59.7315 27.65 59.6379 27.611C59.4445 27.5302 59.2769 27.4192 59.1002 27.3089C58.7826 27.1107 58.588 26.8803 58.3448 26.5882C58.311 26.5476 58.2728 26.5042 58.2207 26.495C58.1419 26.4811 58.0746 26.55 58.0272 26.6144C57.5735 27.2341 57.4601 28.0612 57.6133 28.8142C57.7665 29.5668 58.1641 30.2518 58.6489 30.848C58.1287 31.6209 58.1208 32.6716 58.508 33.5189C58.6799 33.895 58.9231 34.2349 59.2113 34.5307C59.5683 34.8968 59.9918 35.1961 60.3675 35.5368C60.7507 35.885 61.2128 36.203 61.5089 36.6345Z" fill="#37474F"/>
<path d="M71.0474 31.1507C71.0562 32.0283 71.1799 32.6413 71.2727 32.9115C71.4577 33.4512 71.767 33.8074 72.1614 34.2201C72.5658 34.6432 73.0672 34.9803 73.394 35.4659C73.8398 36.1285 73.993 36.9826 74.0869 37.7579C74.1438 38.2296 74.2887 38.7434 74.6923 38.9933C75.5436 39.5199 76.0538 38.4986 76.508 37.9975C77.0938 37.4559 78.8303 36.796 79.6339 38.6415C80.4661 40.5535 78.9322 43.0852 77.5344 43.4744C75.1253 44.1454 74.6023 42.5065 74.6023 42.5065L74.1407 51.1033C72.7803 53.6795 69.5883 54.497 67.4913 54.0871C65.6808 53.7333 64.6858 52.4648 66.3884 50.6237L66.4803 48.0056C66.4803 48.0056 64.3089 48.2635 63.2597 48.0661C61.5145 47.7378 60.6492 46.2552 60.1788 44.3393C59.4234 41.2623 59.0779 38.0282 60.012 31.1006C60.4411 30.8642 62.1624 32.2058 64.7689 32.3857C67.3587 32.5648 69.7479 31.8691 71.0474 31.1507Z" fill="#ECBFBF"/>
<path d="M66.4807 48.0059C66.4807 48.0059 70.4213 47.3445 71.8139 46.6611C72.746 46.2038 73.5277 45.3843 73.7669 44.8506C73.7669 44.8506 73.4728 46.004 72.6203 47.0237C71.5775 48.271 66.4469 49.0475 66.4469 49.0475L66.4807 48.0059Z" fill="#CBB5B5"/>
<path d="M68.5157 34.2121L70.3501 34.7733C70.493 34.2503 70.1981 33.7007 69.6918 33.5454C69.1852 33.3902 68.6586 33.6887 68.5157 34.2121Z" fill="#263238"/>
<path d="M67.8781 42.9199L65.1777 43.8345C65.4169 44.6078 66.2153 45.0297 66.9611 44.7774C67.707 44.5251 68.1173 43.6932 67.8781 42.9199Z" fill="#CBB5B5"/>
<path d="M67.66 43.5811C66.9142 43.5811 66.2925 44.0965 66.1202 44.789C66.3856 44.871 66.677 44.8738 66.9612 44.7778C67.4849 44.6003 67.8375 44.1355 67.9215 43.6077C67.836 43.5934 67.7496 43.5811 67.66 43.5811Z" fill="#F28F8F"/>
<path d="M60.3265 34.5203L62.1895 34.2747C62.1342 33.7681 61.6721 33.4123 61.1575 33.4799C60.6433 33.5476 60.2712 34.0133 60.3265 34.5203Z" fill="#263238"/>
<path d="M71.8 35.3154L77.9551 37.4248C77.9551 37.4248 76.9907 37.3468 76.1816 38.3251L71.8219 36.669L71.8 35.3154Z" fill="#263238"/>
<path d="M61.2427 37.7166C61.2291 38.1385 61.5471 38.4903 61.9535 38.5023C62.3595 38.5142 62.7001 38.1823 62.7137 37.76C62.7276 37.3381 62.4092 36.9863 62.0032 36.9739C61.5969 36.962 61.2566 37.2943 61.2427 37.7166Z" fill="#263238"/>
<path d="M68.2769 37.72C68.2634 38.1419 68.5814 38.4937 68.9878 38.5057C69.3937 38.5176 69.7344 38.1857 69.7479 37.7634C69.7619 37.3415 69.4435 36.9893 69.0375 36.9773C68.6312 36.9658 68.2909 37.2981 68.2769 37.72Z" fill="#263238"/>
<path d="M57.6121 35.762C57.6392 36.1361 57.878 36.484 58.0006 36.6296C58.065 36.7064 58.1247 36.8075 58.1566 36.9389C58.3003 37.5307 58.4228 38.6523 58.7034 39.2823C58.9852 39.9115 59.5731 40.9097 61.226 40.9475C61.5475 40.9555 61.8321 40.9292 62.0844 40.8751C62.1063 40.8711 62.1282 40.8655 62.1493 40.8612C62.4164 40.7991 62.6468 40.7043 62.847 40.5865C62.8609 40.5782 62.8753 40.5694 62.8884 40.5607C62.9091 40.5487 62.9286 40.5364 62.9481 40.5229C62.9656 40.5117 62.9827 40.4994 63.0229 40.4711C63.0468 40.4544 63.0695 40.4373 63.0922 40.419C63.1184 40.3991 63.1431 40.3788 63.1678 40.3573C63.1925 40.337 63.2164 40.3159 63.2402 40.2932C63.2876 40.2494 63.3318 40.2041 63.3752 40.1567C63.6195 39.8912 63.7958 39.58 63.9355 39.2656C64.2993 38.4465 64.205 37.3003 64.8036 37.1677C64.8259 37.1629 64.8505 37.159 64.8752 37.1574C64.8999 37.1546 64.9258 37.1542 64.9528 37.1542C65.7667 37.1661 65.676 38.4147 66.1317 39.3058C66.5858 40.1985 67.3388 41.0689 69.1044 41.0936C69.1832 41.0952 69.2596 41.0936 69.3328 41.0916C69.3953 41.0888 69.4562 41.0856 69.5147 41.0793C69.6663 41.0685 69.8084 41.047 69.9398 41.0192C69.9855 41.0088 70.0301 40.9993 70.0735 40.9881C70.1169 40.977 70.1603 40.9638 70.2013 40.9519C70.2279 40.9447 70.255 40.9356 70.2821 40.9264C70.4619 40.8639 70.6196 40.7887 70.76 40.702C70.8158 40.6669 70.8679 40.6315 70.9204 40.5941C71.0211 40.5197 71.1103 40.4409 71.1967 40.3517C71.4613 40.0763 71.6213 39.7718 71.7316 39.5235C72.0058 38.9046 72.0774 37.7834 72.2135 37.1996C72.2502 37.0443 72.2979 36.9365 72.3485 36.8617C72.4627 36.6925 72.7353 36.3988 72.7461 36.0243C72.7568 35.6497 72.4929 35.3234 72.2545 35.2888C72.116 35.2689 71.9712 35.2494 71.8215 35.2311C70.4285 35.0623 68.612 34.9879 67.5255 35.2828C66.1632 35.6553 65.6907 36.0919 64.9309 36.0812C64.2205 36.0645 63.7592 35.6115 62.4689 35.1901C61.4393 34.8553 59.7414 34.8653 58.4447 34.9839C58.3058 34.9966 58.1717 35.0106 58.0432 35.0261C57.8203 35.0512 57.5851 35.3879 57.6121 35.762ZM66.5743 36.6141C66.6463 36.5082 66.7816 36.3988 66.9619 36.2973C66.9842 36.283 67.0073 36.2706 67.032 36.2583C67.0447 36.2507 67.0575 36.2444 67.0706 36.238C67.1311 36.2066 67.1952 36.1759 67.2628 36.1472C67.3189 36.1226 67.3786 36.0979 67.4403 36.0744C67.619 36.0052 67.8168 35.9435 68.0218 35.8913C68.0978 35.8722 68.175 35.8535 68.2534 35.8376C68.4505 35.795 68.651 35.764 68.852 35.7433C68.9002 35.7381 68.9472 35.7333 68.9917 35.7321C70.3035 35.6255 71.1222 35.9347 71.4199 36.2038C71.7284 36.4832 71.5891 37.6947 71.4641 38.31C71.4609 38.3251 71.4577 38.3402 71.4546 38.3558C71.4514 38.3709 71.4482 38.3872 71.445 38.4035C71.4299 38.4779 71.412 38.5623 71.3889 38.6519C71.3758 38.7012 71.3614 38.7534 71.3463 38.8059C71.3451 38.8087 71.3451 38.8107 71.3439 38.8123C71.32 38.8954 71.291 38.981 71.2564 39.0694V39.0702C71.2452 39.0988 71.2329 39.1291 71.2205 39.1581C71.2142 39.1752 71.2062 39.1927 71.1971 39.2107C71.1891 39.2302 71.1803 39.2493 71.17 39.2692C71.1588 39.2934 71.1465 39.3185 71.1338 39.3428C71.1202 39.3703 71.1055 39.3977 71.0896 39.4244C71.0737 39.453 71.0566 39.4817 71.0371 39.5111C71.0199 39.5394 71.0004 39.5693 70.9797 39.5983C70.6542 40.0691 70.1033 40.4659 69.1462 40.4632C68.1993 40.4612 67.5959 40.1356 67.2095 39.7249L67.2083 39.7245C66.8254 39.3149 66.6551 38.8226 66.5735 38.4815C66.4119 37.791 66.3184 36.9886 66.5743 36.6141ZM58.8587 35.9721C58.9311 35.9029 59.0374 35.832 59.179 35.7691C59.1878 35.7648 59.1954 35.7616 59.2041 35.758C59.2479 35.7381 59.2945 35.7198 59.3458 35.7023C59.3733 35.6931 59.4031 35.6828 59.4326 35.6744C59.4557 35.6677 59.4807 35.6597 59.5046 35.6541C59.5209 35.6486 59.5376 35.6454 59.5528 35.6414C59.5595 35.639 59.5659 35.6378 59.5715 35.637C59.5946 35.631 59.6188 35.6259 59.6427 35.6203C59.7358 35.5996 59.8369 35.5833 59.9444 35.5705C59.9973 35.5638 60.0519 35.5578 60.108 35.5546C60.1398 35.5514 60.1728 35.5499 60.2067 35.5475C60.2322 35.5459 60.2572 35.5451 60.2827 35.5443C60.35 35.5427 60.42 35.5411 60.4916 35.5423C60.5171 35.5427 60.5426 35.5427 60.5689 35.5435C60.5919 35.5439 60.6162 35.5447 60.6405 35.5455C60.828 35.5526 61.0297 35.5713 61.2451 35.6024C62.1804 35.7377 63.1575 36.1711 63.4122 36.5556C63.6669 36.9397 63.61 37.7389 63.4878 38.4234C63.4631 38.5587 63.4269 38.7159 63.3696 38.8819C63.3664 38.8931 63.3612 38.905 63.3572 38.9177C63.3521 38.9328 63.3469 38.9484 63.3405 38.9643C63.3366 38.9746 63.3334 38.985 63.329 38.9953C63.3218 39.0136 63.3147 39.0323 63.3059 39.0503C63.29 39.0889 63.2733 39.1259 63.2554 39.1637C63.2406 39.1955 63.2239 39.2286 63.2068 39.2604C63.2004 39.2723 63.1941 39.2839 63.1877 39.2946C63.1758 39.3153 63.163 39.3376 63.1491 39.3595C63.1384 39.3778 63.1268 39.3965 63.1141 39.4156C63.1129 39.4184 63.1109 39.4216 63.1089 39.4248C62.7833 39.9235 62.2023 40.3533 61.1611 40.3143C60.7687 40.3016 60.4443 40.2136 60.1796 40.0787C59.2503 39.6063 59.0127 38.5615 58.902 38.0771C58.7631 37.4583 58.5813 36.2396 58.8587 35.9721Z" fill="#263238"/>
<path d="M65.1777 37.1974L65.0384 42.3137L62.1831 41.4895L64.8446 37.1552C64.9679 37.1429 65.0774 37.1608 65.1777 37.1974Z" fill="#CBB5B5"/>
<path d="M105.08 37.8479C113.224 37.8479 119.826 32.0653 119.826 24.932C119.826 17.7988 113.224 12.0161 105.08 12.0161C96.9358 12.0161 90.3336 17.7988 90.3336 24.932C90.3336 32.0653 96.9358 37.8479 105.08 37.8479Z" fill="#1CDEEC"/>
<path d="M93.3091 32.3999C93.2283 34.1328 91.7637 37.2284 89.1146 38.3548C88.9478 38.4256 88.9673 38.6656 89.1448 38.7026C90.592 39.0039 94.455 39.3681 97.3042 35.6122L93.3091 32.3999Z" fill="#1CDEEC"/>
<path d="M95.0822 23.9073C95.1132 23.3274 95.2398 22.7813 95.4627 22.2691C95.6852 21.7565 96.0008 21.3115 96.4099 20.9338C96.8187 20.5561 97.3154 20.256 97.9004 20.0331C98.4855 19.8103 99.1609 19.6992 99.927 19.6992C100.682 19.6992 101.356 19.8103 101.946 20.0331C102.536 20.256 103.035 20.5561 103.444 20.9338C103.853 21.3115 104.169 21.7565 104.391 22.2691C104.614 22.7813 104.741 23.3274 104.772 23.9073C104.793 24.3522 104.803 24.8183 104.803 25.3047C104.803 25.7918 104.793 26.2467 104.772 26.6714C104.741 27.2513 104.614 27.7973 104.391 28.3096C104.169 28.8222 103.853 29.2699 103.444 29.6528C103.035 30.0361 102.536 30.3362 101.946 30.5539C101.356 30.7712 100.682 30.8798 99.927 30.8798C99.1609 30.8798 98.4855 30.7712 97.9004 30.5539C97.3154 30.3362 96.8187 30.0361 96.4099 29.6528C96.0008 29.2699 95.6852 28.8222 95.4627 28.3096C95.2398 27.7973 95.1132 27.2513 95.0822 26.6714C95.0611 26.2471 95.0511 25.7918 95.0511 25.3047C95.0511 24.8183 95.0611 24.3522 95.0822 23.9073ZM101.899 26.5938C101.909 26.4071 101.92 26.2006 101.93 25.9725C101.94 25.7452 101.946 25.5124 101.946 25.274C101.946 25.0356 101.94 24.8056 101.93 24.5831C101.92 24.3602 101.909 24.1612 101.899 23.9849C101.878 23.7266 101.824 23.4882 101.736 23.2709C101.648 23.0532 101.524 22.8645 101.363 22.7037C101.203 22.5437 101.004 22.4164 100.765 22.3236C100.527 22.2305 100.247 22.1835 99.927 22.1835C99.6059 22.1835 99.3265 22.2301 99.0889 22.3236C98.8505 22.4164 98.6511 22.5437 98.4907 22.7037C98.3303 22.8645 98.2061 23.0532 98.1181 23.2709C98.0298 23.4882 97.9756 23.7266 97.955 23.9849C97.9339 24.1612 97.9211 24.3602 97.916 24.5831C97.9104 24.806 97.908 25.036 97.908 25.274C97.908 25.5124 97.9104 25.7452 97.916 25.9725C97.9211 26.2006 97.9339 26.4075 97.955 26.5938C97.9963 27.1116 98.175 27.541 98.4907 27.8825C98.8067 28.224 99.2851 28.3947 99.927 28.3947C100.569 28.3947 101.045 28.224 101.356 27.8825C101.666 27.541 101.847 27.1112 101.899 26.5938Z" fill="#FAFAFA"/>
<path d="M115.797 30.2115C115.828 30.2529 115.844 30.3098 115.844 30.3822C115.844 30.4753 115.81 30.5557 115.743 30.6226C115.675 30.6903 115.595 30.7237 115.502 30.7237H113.033C112.888 30.7237 112.769 30.6926 112.676 30.6306C112.583 30.5685 112.49 30.4805 112.396 30.3667L109.462 26.6709V30.3046C109.462 30.4188 109.42 30.5171 109.337 30.5995C109.254 30.6827 109.156 30.7241 109.042 30.7241H107.008C106.894 30.7241 106.796 30.6827 106.713 30.5995C106.63 30.5171 106.589 30.4188 106.589 30.3046V20.2734C106.589 20.1596 106.63 20.0613 106.713 19.9785C106.796 19.8957 106.894 19.8539 107.008 19.8539H109.042C109.156 19.8539 109.254 19.8953 109.337 19.9785C109.42 20.0613 109.462 20.1596 109.462 20.2734V23.5497L112.195 20.1954C112.246 20.1333 112.314 20.0609 112.396 19.9781C112.479 19.8953 112.619 19.8535 112.816 19.8535H115.238C115.331 19.8535 115.412 19.8873 115.479 19.9546C115.546 20.0219 115.58 20.1019 115.58 20.195C115.58 20.2678 115.564 20.3244 115.533 20.3661L111.697 25.0554L115.797 30.2115Z" fill="#FAFAFA"/>
<path d="M143.127 37.1417L140.897 37.8136L139.283 32.4302L141.51 31.7588L143.127 37.1417Z" fill="#E0E0E0"/>
<path d="M150.099 32.3608C150.186 32.6497 149.9 33.2718 149.467 33.4028C149.467 33.4028 149.674 33.6225 149.779 33.9727C149.907 34.3894 149.567 34.9498 148.897 35.1496C148.23 35.3494 143.79 36.6863 143.79 36.6863L142.287 31.6862L142.284 31.6858C142.284 31.6858 143.15 29.4741 143.193 29.1414C143.243 28.8138 142.725 27.5816 142.656 27.35C142.599 27.1613 143.411 26.8182 144.065 27.0817C144.216 27.1434 144.359 27.2349 144.482 27.3699C144.738 27.6501 144.929 27.9247 145.067 28.2085C145.288 28.6467 145.378 29.1028 145.378 29.6202L148.463 28.692C148.721 28.6148 148.946 28.6371 149.123 28.7127C149.398 28.8262 149.575 29.0622 149.632 29.2528C149.775 29.7037 149.511 30.05 149.37 30.1845C149.37 30.1845 150.028 30.1304 150.214 30.7513C150.318 31.0991 150.146 31.5592 149.705 31.7857C149.705 31.7857 149.97 31.929 150.099 32.3608Z" fill="#E0E0E0"/>
<path d="M175.122 92.978L172.26 92.2899L173.928 85.3882L176.786 86.0739L175.122 92.978Z" fill="#E0E0E0"/>
<path d="M185.775 92.2015C185.685 92.572 184.977 93.0683 184.421 92.9354C184.421 92.9354 184.508 93.3075 184.399 93.7565C184.274 94.2926 183.545 94.6874 182.686 94.4784C181.831 94.2719 176.135 92.9023 176.135 92.9023L177.681 86.4894L177.677 86.4866C177.677 86.4866 180.032 84.6251 180.29 84.2892C180.554 83.9641 180.773 82.2897 180.845 81.9924C180.903 81.7504 182.008 81.8937 182.554 82.5977C182.679 82.7609 182.777 82.9519 182.825 83.1776C182.926 83.6465 182.959 84.0679 182.929 84.4655C182.891 85.0844 182.699 85.6392 182.369 86.204L186.327 87.1564C186.657 87.2364 186.888 87.4036 187.034 87.5998C187.262 87.8991 187.304 88.2684 187.245 88.5136C187.113 89.0963 186.605 89.3064 186.365 89.3633C186.365 89.3633 187.117 89.7235 186.925 90.5191C186.817 90.9653 186.336 91.3569 185.71 91.3235C185.712 91.3235 185.909 91.6478 185.775 92.2015Z" fill="#E0E0E0"/>
<path d="M30.5756 88.8478L33.6991 89.7883L35.9593 82.2501L32.8406 81.3101L30.5756 88.8478Z" fill="#E0E0E0"/>
<path d="M20.8126 82.1521C20.6912 82.5565 21.0916 83.4277 21.6982 83.6112C21.6982 83.6112 21.4068 83.9188 21.26 84.4092C21.0805 84.9926 21.5573 85.7779 22.4962 86.0573C23.4303 86.3375 29.647 88.2093 29.647 88.2093L31.7513 81.2073L31.756 81.2069C31.756 81.2069 30.5425 78.1096 30.4832 77.6436C30.4128 77.1851 31.1383 75.4593 31.2354 75.135C31.3146 74.8707 30.1772 74.3903 29.2614 74.7593C29.0504 74.8456 28.8502 74.9738 28.6779 75.1628C28.3197 75.5553 28.0514 75.9401 27.8584 76.3373C27.5496 76.951 27.423 77.5894 27.423 78.3142L23.1027 77.0143C22.7417 76.9065 22.4269 76.9371 22.1778 77.0434C21.7925 77.2022 21.5453 77.5325 21.4653 77.8C21.2667 78.4316 21.6349 78.9164 21.8327 79.105C21.8327 79.105 20.9113 79.0294 20.6506 79.8986C20.5046 80.3858 20.7466 81.0298 21.3639 81.347C21.3639 81.347 20.9941 81.5475 20.8126 82.1521Z" fill="#E0E0E0"/>
</svg>
